<svg width="216" height="55" viewBox="0 0 216 55" fill="none" xmlns="http://www.w3.org/2000/svg">
<rect x="0.5" y="0.5" width="200" height="54" rx="9.5" stroke="#B5B5B5"/>
<path d="M58.816 17.432C59.92 17.432 60.724 17.672 61.228 18.152C61.74 18.624 61.996 19.276 61.996 20.108C61.996 20.604 61.892 21.072 61.684 21.512C61.476 21.944 61.128 22.292 60.64 22.556C60.16 22.82 59.504 22.952 58.672 22.952H57.892V26H56.08V17.432H58.816ZM58.72 18.92H57.892V21.464H58.492C59.004 21.464 59.408 21.364 59.704 21.164C60.008 20.956 60.16 20.624 60.16 20.168C60.16 19.336 59.68 18.92 58.72 18.92ZM68.5472 26H63.6152V17.432H68.5472V18.92H65.4272V20.804H68.3312V22.292H65.4272V24.5H68.5472V26ZM72.826 17.432C73.994 17.432 74.854 17.644 75.406 18.068C75.966 18.492 76.246 19.136 76.246 20C76.246 20.392 76.17 20.736 76.018 21.032C75.874 21.32 75.678 21.568 75.43 21.776C75.19 21.976 74.93 22.14 74.65 22.268L77.17 26H75.154L73.114 22.712H72.142V26H70.33V17.432H72.826ZM72.694 18.92H72.142V21.236H72.73C73.33 21.236 73.758 21.136 74.014 20.936C74.278 20.736 74.41 20.44 74.41 20.048C74.41 19.64 74.27 19.352 73.99 19.184C73.718 19.008 73.286 18.92 72.694 18.92ZM83.3039 23.624C83.3039 24.384 83.0279 24.992 82.4759 25.448C81.9319 25.896 81.1559 26.12 80.1479 26.12C79.2439 26.12 78.4359 25.948 77.7239 25.604V23.912C78.1319 24.088 78.5519 24.252 78.9839 24.404C79.4239 24.548 79.8599 24.62 80.2919 24.62C80.7399 24.62 81.0559 24.536 81.2399 24.368C81.4319 24.192 81.5279 23.972 81.5279 23.708C81.5279 23.492 81.4519 23.308 81.2999 23.156C81.1559 23.004 80.9599 22.864 80.7119 22.736C80.4639 22.6 80.1799 22.456 79.8599 22.304C79.6599 22.208 79.4439 22.096 79.2119 21.968C78.9799 21.832 78.7559 21.668 78.5399 21.476C78.3319 21.276 78.1599 21.036 78.0239 20.756C77.8879 20.476 77.8199 20.14 77.8199 19.748C77.8199 18.98 78.0799 18.384 78.5999 17.96C79.1199 17.528 79.8279 17.312 80.7239 17.312C81.1719 17.312 81.5959 17.364 81.9959 17.468C82.4039 17.572 82.8279 17.72 83.2679 17.912L82.6799 19.328C82.2879 19.168 81.9359 19.044 81.6239 18.956C81.3119 18.868 80.9919 18.824 80.6639 18.824C80.3199 18.824 80.0559 18.904 79.8719 19.064C79.6879 19.224 79.5959 19.432 79.5959 19.688C79.5959 19.992 79.7319 20.232 80.0039 20.408C80.2759 20.584 80.6799 20.8 81.2159 21.056C81.6559 21.264 82.0279 21.48 82.3319 21.704C82.6439 21.928 82.8839 22.192 83.0519 22.496C83.2199 22.8 83.3039 23.176 83.3039 23.624ZM92.6373 21.704C92.6373 22.592 92.4893 23.368 92.1933 24.032C91.9053 24.688 91.4613 25.2 90.8613 25.568C90.2613 25.936 89.4933 26.12 88.5573 26.12C87.6293 26.12 86.8613 25.936 86.2533 25.568C85.6533 25.2 85.2053 24.684 84.9093 24.02C84.6213 23.356 84.4773 22.58 84.4773 21.692C84.4773 20.804 84.6213 20.032 84.9093 19.376C85.2053 18.72 85.6533 18.212 86.2533 17.852C86.8613 17.484 87.6333 17.3 88.5693 17.3C89.4973 17.3 90.2613 17.484 90.8613 17.852C91.4613 18.212 91.9053 18.724 92.1933 19.388C92.4893 20.044 92.6373 20.816 92.6373 21.704ZM86.3853 21.704C86.3853 22.6 86.5573 23.308 86.9013 23.828C87.2453 24.34 87.7973 24.596 88.5573 24.596C89.3333 24.596 89.8893 24.34 90.2253 23.828C90.5613 23.308 90.7293 22.6 90.7293 21.704C90.7293 20.8 90.5613 20.092 90.2253 19.58C89.8893 19.068 89.3373 18.812 88.5693 18.812C87.8013 18.812 87.2453 19.068 86.9013 19.58C86.5573 20.092 86.3853 20.8 86.3853 21.704ZM102.008 26H99.704L95.972 19.52H95.924C95.94 19.928 95.956 20.336 95.972 20.744C95.996 21.152 96.016 21.56 96.032 21.968V26H94.412V17.432H96.704L100.424 23.852H100.46C100.452 23.452 100.44 23.056 100.424 22.664C100.408 22.272 100.392 21.88 100.376 21.488V17.432H102.008V26ZM109.418 26L108.794 23.96H105.674L105.05 26H103.094L106.118 17.396H108.338L111.374 26H109.418ZM107.738 20.444C107.698 20.308 107.646 20.136 107.582 19.928C107.518 19.72 107.454 19.508 107.39 19.292C107.326 19.076 107.274 18.888 107.234 18.728C107.194 18.888 107.138 19.088 107.066 19.328C107.002 19.56 106.938 19.784 106.874 20C106.818 20.208 106.774 20.356 106.742 20.444L106.13 22.436H108.362L107.738 20.444ZM112.459 26V17.432H114.271V24.5H117.751V26H112.459ZM132.885 17.432L130.701 26H128.637L127.473 21.5C127.449 21.412 127.417 21.28 127.377 21.104C127.345 20.928 127.305 20.736 127.257 20.528C127.217 20.32 127.181 20.124 127.149 19.94C127.117 19.748 127.093 19.6 127.077 19.496C127.069 19.6 127.045 19.748 127.005 19.94C126.973 20.124 126.937 20.32 126.897 20.528C126.857 20.728 126.817 20.92 126.777 21.104C126.737 21.28 126.705 21.416 126.681 21.512L125.529 26H123.465L121.281 17.432H123.069L124.161 22.112C124.209 22.296 124.261 22.528 124.317 22.808C124.373 23.088 124.425 23.368 124.473 23.648C124.521 23.928 124.557 24.164 124.581 24.356C124.605 24.156 124.641 23.92 124.689 23.648C124.737 23.368 124.785 23.1 124.833 22.844C124.889 22.58 124.937 22.376 124.977 22.232L126.225 17.432H127.941L129.189 22.232C129.229 22.368 129.273 22.568 129.321 22.832C129.377 23.096 129.429 23.368 129.477 23.648C129.525 23.928 129.561 24.164 129.585 24.356C129.609 24.156 129.645 23.92 129.693 23.648C129.741 23.368 129.793 23.088 129.849 22.808C129.913 22.528 129.965 22.296 130.005 22.112L131.097 17.432H132.885ZM138.895 26H133.963V17.432H138.895V18.92H135.775V20.804H138.679V22.292H135.775V24.5H138.895V26ZM143.342 17.432C144.486 17.432 145.35 17.592 145.934 17.912C146.518 18.232 146.81 18.796 146.81 19.604C146.81 20.092 146.694 20.504 146.462 20.84C146.238 21.176 145.914 21.38 145.49 21.452V21.512C145.778 21.568 146.038 21.668 146.27 21.812C146.502 21.956 146.686 22.164 146.822 22.436C146.958 22.708 147.026 23.068 147.026 23.516C147.026 24.292 146.746 24.9 146.186 25.34C145.626 25.78 144.858 26 143.882 26H140.678V17.432H143.342ZM143.546 20.828C144.074 20.828 144.438 20.744 144.638 20.576C144.846 20.408 144.95 20.164 144.95 19.844C144.95 19.516 144.83 19.28 144.59 19.136C144.35 18.992 143.97 18.92 143.45 18.92H142.49V20.828H143.546ZM142.49 22.268V24.5H143.678C144.222 24.5 144.602 24.396 144.818 24.188C145.034 23.972 145.142 23.688 145.142 23.336C145.142 23.016 145.03 22.76 144.806 22.568C144.59 22.368 144.194 22.268 143.618 22.268H142.49ZM153.792 23.624C153.792 24.384 153.516 24.992 152.964 25.448C152.42 25.896 151.644 26.12 150.636 26.12C149.732 26.12 148.924 25.948 148.212 25.604V23.912C148.62 24.088 149.04 24.252 149.472 24.404C149.912 24.548 150.348 24.62 150.78 24.62C151.228 24.62 151.544 24.536 151.728 24.368C151.92 24.192 152.016 23.972 152.016 23.708C152.016 23.492 151.94 23.308 151.788 23.156C151.644 23.004 151.448 22.864 151.2 22.736C150.952 22.6 150.668 22.456 150.348 22.304C150.148 22.208 149.932 22.096 149.7 21.968C149.468 21.832 149.244 21.668 149.028 21.476C148.82 21.276 148.648 21.036 148.512 20.756C148.376 20.476 148.308 20.14 148.308 19.748C148.308 18.98 148.568 18.384 149.088 17.96C149.608 17.528 150.316 17.312 151.212 17.312C151.66 17.312 152.084 17.364 152.484 17.468C152.892 17.572 153.316 17.72 153.756 17.912L153.168 19.328C152.776 19.168 152.424 19.044 152.112 18.956C151.8 18.868 151.48 18.824 151.152 18.824C150.808 18.824 150.544 18.904 150.36 19.064C150.176 19.224 150.084 19.432 150.084 19.688C150.084 19.992 150.22 20.232 150.492 20.408C150.764 20.584 151.168 20.8 151.704 21.056C152.144 21.264 152.516 21.48 152.82 21.704C153.132 21.928 153.372 22.192 153.54 22.496C153.708 22.8 153.792 23.176 153.792 23.624ZM158.554 26H154.654V24.968L155.698 24.488V18.944L154.654 18.464V17.432H158.554V18.464L157.51 18.944V24.488L158.554 24.968V26ZM163.314 26H161.502V18.944H159.174V17.432H165.642V18.944H163.314V26ZM171.895 26H166.963V17.432H171.895V18.92H168.775V20.804H171.679V22.292H168.775V24.5H171.895V26Z" fill="black"/>
<path d="M60.39 39H56.122V31.146H60.39V31.542H56.551V34.666H60.17V35.062H56.551V38.604H60.39V39ZM64.2486 33.082C64.4099 33.082 64.5603 33.093 64.6996 33.115C64.8389 33.1297 64.9709 33.1553 65.0956 33.192L65.0186 33.588C64.8866 33.5513 64.7583 33.5257 64.6336 33.511C64.5163 33.489 64.3806 33.478 64.2266 33.478C63.6473 33.478 63.2073 33.6833 62.9066 34.094C62.6133 34.5047 62.4666 35.0583 62.4666 35.755V39H62.0486V33.17H62.4226L62.4556 34.281H62.4886C62.6059 33.9437 62.8113 33.6613 63.1046 33.434C63.4053 33.1993 63.7866 33.082 64.2486 33.082ZM68.4595 33.082C68.6209 33.082 68.7712 33.093 68.9105 33.115C69.0499 33.1297 69.1819 33.1553 69.3065 33.192L69.2295 33.588C69.0975 33.5513 68.9692 33.5257 68.8445 33.511C68.7272 33.489 68.5915 33.478 68.4375 33.478C67.8582 33.478 67.4182 33.6833 67.1175 34.094C66.8242 34.5047 66.6775 35.0583 66.6775 35.755V39H66.2595V33.17H66.6335L66.6665 34.281H66.6995C66.8169 33.9437 67.0222 33.6613 67.3155 33.434C67.6162 33.1993 67.9975 33.082 68.4595 33.082ZM70.8775 33.115C70.8775 33.3057 70.8738 33.5257 70.8665 33.775C70.8591 34.0243 70.8518 34.2333 70.8445 34.402H70.8775C71.0095 34.0133 71.2551 33.6943 71.6145 33.445C71.9811 33.1883 72.4321 33.06 72.9675 33.06C73.7301 33.06 74.3131 33.3167 74.7165 33.83C75.1198 34.336 75.3215 35.084 75.3215 36.074C75.3215 36.6533 75.2298 37.174 75.0465 37.636C74.8705 38.0907 74.5955 38.45 74.2215 38.714C73.8548 38.978 73.3891 39.11 72.8245 39.11C72.3111 39.11 71.8931 39 71.5705 38.78C71.2551 38.5527 71.0278 38.2703 70.8885 37.933H70.8555L70.7895 39H70.4485V30.64H70.8775V33.115ZM72.9345 33.445C72.2231 33.445 71.7025 33.676 71.3725 34.138C71.0425 34.6 70.8775 35.249 70.8775 36.085V36.184C70.8775 37.0127 71.0315 37.6433 71.3395 38.076C71.6475 38.5087 72.1315 38.725 72.7915 38.725C73.4808 38.725 74.0015 38.494 74.3535 38.032C74.7055 37.57 74.8815 36.9137 74.8815 36.063C74.8815 34.3177 74.2325 33.445 72.9345 33.445ZM77.1568 31.036C77.2961 31.036 77.3878 31.0727 77.4318 31.146C77.4831 31.2193 77.5088 31.3147 77.5088 31.432C77.5088 31.5493 77.4831 31.6447 77.4318 31.718C77.3878 31.7913 77.2961 31.828 77.1568 31.828C77.0394 31.828 76.9551 31.7913 76.9038 31.718C76.8524 31.6447 76.8268 31.5493 76.8268 31.432C76.8268 31.3147 76.8524 31.2193 76.9038 31.146C76.9551 31.0727 77.0394 31.036 77.1568 31.036ZM77.3768 33.17V39H76.9478V33.17H77.3768ZM81.8295 33.06C82.4748 33.06 82.9698 33.2323 83.3145 33.577C83.6665 33.9217 83.8425 34.457 83.8425 35.183V39H83.4135V35.205C83.4135 34.5963 83.2742 34.1527 82.9955 33.874C82.7168 33.588 82.3172 33.445 81.7965 33.445C81.1585 33.445 80.6598 33.6357 80.3005 34.017C79.9412 34.391 79.7615 34.963 79.7615 35.733V39H79.3325V33.17H79.6735L79.7395 34.314H79.7725C79.9118 33.984 80.1465 33.6943 80.4765 33.445C80.8138 33.1883 81.2648 33.06 81.8295 33.06ZM87.2089 38.725C87.3775 38.725 87.5315 38.714 87.6709 38.692C87.8175 38.67 87.9495 38.637 88.0669 38.593V38.956C87.9495 39 87.8175 39.0367 87.6709 39.066C87.5242 39.0953 87.3592 39.11 87.1759 39.11C86.6699 39.11 86.3069 38.967 86.0869 38.681C85.8669 38.395 85.7569 37.977 85.7569 37.427V33.544H84.8769V33.258L85.7569 33.159L85.8889 31.751H86.1859V33.17H88.0339V33.544H86.1859V37.394C86.1859 37.8267 86.2592 38.1567 86.4059 38.384C86.5599 38.6113 86.8275 38.725 87.2089 38.725ZM89.2672 38.681C89.2672 38.5563 89.2966 38.4537 89.3552 38.373C89.4139 38.2923 89.5056 38.252 89.6302 38.252C89.7696 38.252 89.8649 38.2923 89.9162 38.373C89.9749 38.4537 90.0042 38.5563 90.0042 38.681C90.0042 38.8057 89.9749 38.9083 89.9162 38.989C89.8649 39.0623 89.7696 39.099 89.6302 39.099C89.5056 39.099 89.4139 39.0623 89.3552 38.989C89.2966 38.9083 89.2672 38.8057 89.2672 38.681ZM97.5884 39H97.1924L92.4294 31.938H92.4074C92.4147 32.2387 92.4184 32.532 92.4184 32.818C92.4257 33.0967 92.4294 33.3937 92.4294 33.709V39H92.0224V31.146H92.4294L97.1704 38.186H97.1924C97.1924 37.9367 97.1887 37.6543 97.1814 37.339C97.1741 37.0237 97.1704 36.7303 97.1704 36.459V31.146H97.5884V39ZM104.111 39H99.8427V31.146H104.111V31.542H100.272V34.666H103.891V35.062H100.272V38.604H104.111V39ZM107.826 39H107.397V31.542H104.823V31.146H110.411V31.542H107.826V39Z" fill="black"/>
<path d="M23.507 27.4829V33.7415H17V16H41V27.4829H23.507ZM23.507 40V33.7415H41V40H23.507Z" fill="#C2C2C2"/>
</svg>
