<svg width="216" height="55" viewBox="0 0 216 55" fill="none" xmlns="http://www.w3.org/2000/svg">
<rect x="0.5" y="0.5" width="200" height="54" rx="9.5" stroke="#B5B5B5"/>
<path d="M57.868 26H56.08V17.432H60.988V18.92H57.868V21.128H60.772V22.616H57.868V26ZM65.8699 26H61.9699V24.968L63.0139 24.488V18.944L61.9699 18.464V17.432H65.8699V18.464L64.8259 18.944V24.488L65.8699 24.968V26ZM70.582 21.188H73.978V25.628C73.53 25.78 73.062 25.9 72.574 25.988C72.094 26.076 71.546 26.12 70.93 26.12C69.65 26.12 68.666 25.744 67.978 24.992C67.29 24.24 66.946 23.144 66.946 21.704C66.946 20.808 67.118 20.032 67.462 19.376C67.814 18.72 68.322 18.212 68.986 17.852C69.65 17.492 70.462 17.312 71.422 17.312C71.878 17.312 72.326 17.36 72.766 17.456C73.206 17.552 73.606 17.68 73.966 17.84L73.366 19.292C73.102 19.156 72.802 19.044 72.466 18.956C72.13 18.868 71.778 18.824 71.41 18.824C70.882 18.824 70.422 18.944 70.03 19.184C69.646 19.424 69.346 19.764 69.13 20.204C68.922 20.636 68.818 21.148 68.818 21.74C68.818 22.3 68.894 22.796 69.046 23.228C69.198 23.66 69.438 24 69.766 24.248C70.094 24.488 70.522 24.608 71.05 24.608C71.306 24.608 71.522 24.596 71.698 24.572C71.882 24.548 72.05 24.52 72.202 24.488V22.7H70.582V21.188ZM79.6376 26L77.5736 19.28H77.5256C77.5336 19.44 77.5456 19.68 77.5616 20C77.5776 20.32 77.5936 20.664 77.6096 21.032C77.6256 21.392 77.6336 21.72 77.6336 22.016V26H76.0136V17.432H78.4856L80.5136 23.984H80.5496L82.6976 17.432H85.1696V26H83.4776V21.944C83.4776 21.672 83.4816 21.36 83.4896 21.008C83.5056 20.656 83.5176 20.324 83.5256 20.012C83.5416 19.692 83.5536 19.452 83.5616 19.292H83.5136L81.3056 26H79.6376ZM92.5779 26L91.9539 23.96H88.8339L88.2099 26H86.2539L89.2779 17.396H91.4979L94.5339 26H92.5779ZM90.8979 20.444C90.8579 20.308 90.8059 20.136 90.7419 19.928C90.6779 19.72 90.6139 19.508 90.5499 19.292C90.4859 19.076 90.4339 18.888 90.3939 18.728C90.3539 18.888 90.2979 19.088 90.2259 19.328C90.1619 19.56 90.0979 19.784 90.0339 20C89.9779 20.208 89.9339 20.356 89.9019 20.444L89.2899 22.436H91.5219L90.8979 20.444ZM105.756 26H103.944V22.304H100.548V26H98.7363V17.432H100.548V20.792H103.944V17.432H105.756V26ZM113.156 26L112.532 23.96H109.412L108.788 26H106.832L109.856 17.396H112.076L115.112 26H113.156ZM111.476 20.444C111.436 20.308 111.384 20.136 111.32 19.928C111.256 19.72 111.192 19.508 111.128 19.292C111.064 19.076 111.012 18.888 110.972 18.728C110.932 18.888 110.876 19.088 110.804 19.328C110.74 19.56 110.676 19.784 110.612 20C110.556 20.208 110.512 20.356 110.48 20.444L109.868 22.436H112.1L111.476 20.444ZM116.197 26V17.432H118.009V24.5H121.489V26H116.197ZM122.982 26V17.432H124.794V24.5H128.274V26H122.982Z" fill="black"/>
<path d="M60.932 39L60.032 36.651H57.287L56.369 39H56L58.529 32.556H58.862L61.301 39H60.932ZM58.97 33.798C58.94 33.696 58.898 33.573 58.844 33.429C58.79 33.279 58.736 33.126 58.682 32.97C58.64 33.114 58.592 33.261 58.538 33.411C58.484 33.555 58.433 33.684 58.385 33.798L57.413 36.327H59.906L58.97 33.798ZM62.4606 39H62.1186V32.16H62.4606V39ZM64.4118 39H64.0698V32.16H64.4118V39ZM73.1828 34.14C73.6148 34.14 73.9628 34.272 74.2268 34.536C74.4968 34.8 74.6318 35.211 74.6318 35.769V39H74.2898V35.787C74.2898 35.325 74.1818 34.989 73.9658 34.779C73.7558 34.563 73.4858 34.455 73.1558 34.455C72.6998 34.455 72.3368 34.587 72.0668 34.851C71.7968 35.115 71.6618 35.541 71.6618 36.129V39H71.3198V35.787C71.3198 35.325 71.2118 34.989 70.9958 34.779C70.7858 34.563 70.5158 34.455 70.1858 34.455C69.7538 34.455 69.3968 34.59 69.1148 34.86C68.8388 35.13 68.7008 35.565 68.7008 36.165V39H68.3498V34.23H68.6288L68.6828 35.058H68.7098C68.7758 34.902 68.8718 34.755 68.9978 34.617C69.1298 34.479 69.2948 34.365 69.4928 34.275C69.6908 34.185 69.9308 34.14 70.2128 34.14C70.5488 34.14 70.8338 34.221 71.0678 34.383C71.3078 34.545 71.4728 34.782 71.5628 35.094H71.5808C71.7068 34.8 71.9048 34.569 72.1748 34.401C72.4448 34.227 72.7808 34.14 73.1828 34.14ZM75.3711 34.23H75.7401L76.9371 37.344C77.0391 37.62 77.1261 37.86 77.1981 38.064C77.2701 38.268 77.3301 38.439 77.3781 38.577H77.3961C77.4381 38.445 77.4951 38.277 77.5671 38.073C77.6391 37.869 77.7261 37.635 77.8281 37.371L79.0161 34.23H79.3851L77.1801 39.963C77.0241 40.365 76.8471 40.668 76.6491 40.872C76.4571 41.076 76.1961 41.178 75.8661 41.178C75.6861 41.178 75.5121 41.151 75.3441 41.097V40.782C75.4281 40.806 75.5061 40.827 75.5781 40.845C75.6561 40.863 75.7431 40.872 75.8391 40.872C76.0791 40.872 76.2741 40.794 76.4241 40.638C76.5801 40.482 76.7271 40.224 76.8651 39.864L77.2071 38.964L75.3711 34.23ZM87.3148 36.732C87.3148 37.506 87.0988 38.094 86.6668 38.496C86.2348 38.892 85.6528 39.09 84.9208 39.09C84.1708 39.09 83.5888 38.886 83.1748 38.478C82.7668 38.07 82.5628 37.482 82.5628 36.714V32.574H82.9138V36.705C82.9138 37.383 83.0878 37.896 83.4358 38.244C83.7898 38.592 84.2908 38.766 84.9388 38.766C85.5688 38.766 86.0638 38.598 86.4238 38.262C86.7898 37.926 86.9728 37.434 86.9728 36.786V32.574H87.3148V36.732ZM90.3012 39H88.6722V38.757L89.3112 38.703V32.88L88.6722 32.808V32.574H90.3012V32.808L89.6622 32.88V38.703L90.3012 38.757V39ZM95.5636 34.149C96.0736 34.149 96.4546 34.284 96.7066 34.554C96.9646 34.818 97.0936 35.241 97.0936 35.823V39H96.8146L96.7516 38.118H96.7336C96.5896 38.394 96.3856 38.625 96.1216 38.811C95.8636 38.997 95.4976 39.09 95.0236 39.09C94.5556 39.09 94.1956 38.976 93.9436 38.748C93.6976 38.52 93.5746 38.205 93.5746 37.803C93.5746 37.329 93.7696 36.972 94.1596 36.732C94.5556 36.486 95.1166 36.345 95.8426 36.309L96.7426 36.255V35.895C96.7426 35.379 96.6436 35.013 96.4456 34.797C96.2476 34.575 95.9506 34.464 95.5546 34.464C95.0926 34.464 94.6216 34.584 94.1416 34.824L94.0336 34.518C94.2616 34.41 94.5046 34.323 94.7626 34.257C95.0206 34.185 95.2876 34.149 95.5636 34.149ZM95.8786 36.588C95.2666 36.618 94.7896 36.729 94.4476 36.921C94.1056 37.113 93.9346 37.407 93.9346 37.803C93.9346 38.115 94.0336 38.358 94.2316 38.532C94.4296 38.7 94.7056 38.784 95.0596 38.784C95.6236 38.784 96.0436 38.625 96.3196 38.307C96.5956 37.983 96.7366 37.557 96.7426 37.029V36.552L95.8786 36.588ZM100.446 34.158C100.578 34.158 100.701 34.167 100.815 34.185C100.929 34.197 101.037 34.218 101.139 34.248L101.076 34.572C100.968 34.542 100.863 34.521 100.761 34.509C100.665 34.491 100.554 34.482 100.428 34.482C99.9539 34.482 99.5939 34.65 99.3479 34.986C99.1079 35.322 98.9879 35.775 98.9879 36.345V39H98.6459V34.23H98.9519L98.9789 35.139H99.0059C99.1019 34.863 99.2699 34.632 99.5099 34.446C99.7559 34.254 100.068 34.158 100.446 34.158ZM103.288 38.775C103.426 38.775 103.552 38.766 103.666 38.748C103.786 38.73 103.894 38.703 103.99 38.667V38.964C103.894 39 103.786 39.03 103.666 39.054C103.546 39.078 103.411 39.09 103.261 39.09C102.847 39.09 102.55 38.973 102.37 38.739C102.19 38.505 102.1 38.163 102.1 37.713V34.536H101.38V34.302L102.1 34.221L102.208 33.069H102.451V34.23H103.963V34.536H102.451V37.686C102.451 38.04 102.511 38.31 102.631 38.496C102.757 38.682 102.976 38.775 103.288 38.775ZM107.744 35.661C107.69 35.487 107.642 35.328 107.6 35.184C107.558 35.04 107.516 34.89 107.474 34.734H107.447C107.411 34.89 107.369 35.043 107.321 35.193C107.279 35.343 107.231 35.499 107.177 35.661L106.079 39.009H105.737L104.369 34.239H104.747L105.629 37.425C105.707 37.695 105.764 37.914 105.8 38.082C105.842 38.244 105.878 38.397 105.908 38.541H105.935C105.971 38.397 106.01 38.244 106.052 38.082C106.094 37.92 106.157 37.71 106.241 37.452L107.312 34.239H107.636L108.662 37.443C108.728 37.671 108.788 37.875 108.842 38.055C108.896 38.229 108.938 38.391 108.968 38.541H108.995C109.013 38.397 109.043 38.241 109.085 38.073C109.127 37.899 109.181 37.683 109.247 37.425L110.102 34.239H110.453L109.166 39.009H108.815L107.744 35.661ZM115.287 36.615C115.287 37.095 115.209 37.521 115.053 37.893C114.903 38.265 114.672 38.559 114.36 38.775C114.048 38.985 113.658 39.09 113.19 39.09C112.74 39.09 112.359 38.985 112.047 38.775C111.741 38.565 111.507 38.274 111.345 37.902C111.189 37.53 111.111 37.101 111.111 36.615C111.111 35.853 111.297 35.25 111.669 34.806C112.047 34.362 112.569 34.14 113.235 34.14C113.709 34.14 114.096 34.248 114.396 34.464C114.696 34.68 114.918 34.974 115.062 35.346C115.212 35.718 115.287 36.141 115.287 36.615ZM111.471 36.615C111.471 37.257 111.612 37.779 111.894 38.181C112.176 38.577 112.608 38.775 113.19 38.775C113.592 38.775 113.922 38.685 114.18 38.505C114.438 38.319 114.627 38.064 114.747 37.74C114.867 37.416 114.927 37.041 114.927 36.615C114.927 36.207 114.87 35.841 114.756 35.517C114.642 35.193 114.459 34.935 114.207 34.743C113.961 34.551 113.637 34.455 113.235 34.455C112.665 34.455 112.227 34.647 111.921 35.031C111.621 35.409 111.471 35.937 111.471 36.615ZM118.428 34.158C118.56 34.158 118.683 34.167 118.797 34.185C118.911 34.197 119.019 34.218 119.121 34.248L119.058 34.572C118.95 34.542 118.845 34.521 118.743 34.509C118.647 34.491 118.536 34.482 118.41 34.482C117.936 34.482 117.576 34.65 117.33 34.986C117.09 35.322 116.97 35.775 116.97 36.345V39H116.628V34.23H116.934L116.961 35.139H116.988C117.084 34.863 117.252 34.632 117.492 34.446C117.738 34.254 118.05 34.158 118.428 34.158ZM120.407 35.571C120.407 35.823 120.407 36.069 120.407 36.309C120.407 36.543 120.404 36.786 120.398 37.038C120.488 36.93 120.575 36.828 120.659 36.732C120.743 36.636 120.833 36.534 120.929 36.426L122.909 34.23H123.341L121.478 36.282L123.512 39H123.098L121.235 36.516L120.407 37.407V39H120.065V32.16H120.407V35.571ZM127.235 37.767C127.235 38.181 127.079 38.505 126.767 38.739C126.461 38.973 126.011 39.09 125.417 39.09C125.087 39.09 124.79 39.06 124.526 39C124.262 38.94 124.043 38.868 123.869 38.784V38.424C124.097 38.538 124.343 38.628 124.607 38.694C124.871 38.754 125.144 38.784 125.426 38.784C125.942 38.784 126.314 38.694 126.542 38.514C126.77 38.334 126.884 38.091 126.884 37.785C126.884 37.575 126.824 37.404 126.704 37.272C126.59 37.14 126.428 37.029 126.218 36.939C126.008 36.849 125.768 36.762 125.498 36.678C125.21 36.582 124.952 36.489 124.724 36.399C124.496 36.303 124.316 36.177 124.184 36.021C124.052 35.859 123.986 35.634 123.986 35.346C123.986 34.968 124.136 34.674 124.436 34.464C124.742 34.248 125.15 34.14 125.66 34.14C125.942 34.14 126.206 34.167 126.452 34.221C126.698 34.275 126.92 34.344 127.118 34.428L126.983 34.734C126.809 34.65 126.602 34.584 126.362 34.536C126.122 34.482 125.885 34.455 125.651 34.455C125.237 34.455 124.913 34.53 124.679 34.68C124.451 34.824 124.337 35.043 124.337 35.337C124.337 35.559 124.394 35.73 124.508 35.85C124.622 35.97 124.778 36.069 124.976 36.147C125.174 36.219 125.402 36.3 125.66 36.39C125.936 36.48 126.191 36.576 126.425 36.678C126.665 36.774 126.86 36.906 127.01 37.074C127.16 37.242 127.235 37.473 127.235 37.767ZM132.407 34.149C132.917 34.149 133.298 34.284 133.55 34.554C133.808 34.818 133.937 35.241 133.937 35.823V39H133.658L133.595 38.118H133.577C133.433 38.394 133.229 38.625 132.965 38.811C132.707 38.997 132.341 39.09 131.867 39.09C131.399 39.09 131.039 38.976 130.787 38.748C130.541 38.52 130.418 38.205 130.418 37.803C130.418 37.329 130.613 36.972 131.003 36.732C131.399 36.486 131.96 36.345 132.686 36.309L133.586 36.255V35.895C133.586 35.379 133.487 35.013 133.289 34.797C133.091 34.575 132.794 34.464 132.398 34.464C131.936 34.464 131.465 34.584 130.985 34.824L130.877 34.518C131.105 34.41 131.348 34.323 131.606 34.257C131.864 34.185 132.131 34.149 132.407 34.149ZM132.722 36.588C132.11 36.618 131.633 36.729 131.291 36.921C130.949 37.113 130.778 37.407 130.778 37.803C130.778 38.115 130.877 38.358 131.075 38.532C131.273 38.7 131.549 38.784 131.903 38.784C132.467 38.784 132.887 38.625 133.163 38.307C133.439 37.983 133.58 37.557 133.586 37.029V36.552L132.722 36.588ZM136.687 38.775C136.825 38.775 136.951 38.766 137.065 38.748C137.185 38.73 137.293 38.703 137.389 38.667V38.964C137.293 39 137.185 39.03 137.065 39.054C136.945 39.078 136.81 39.09 136.66 39.09C136.246 39.09 135.949 38.973 135.769 38.739C135.589 38.505 135.499 38.163 135.499 37.713V34.536H134.779V34.302L135.499 34.221L135.607 33.069H135.85V34.23H137.362V34.536H135.85V37.686C135.85 38.04 135.91 38.31 136.03 38.496C136.156 38.682 136.375 38.775 136.687 38.775ZM142.428 34.536H141.33V39H140.979V34.536H140.079V34.302L140.979 34.23V33.636C140.979 33.138 141.087 32.76 141.303 32.502C141.519 32.244 141.861 32.115 142.329 32.115C142.485 32.115 142.626 32.127 142.752 32.151C142.878 32.175 142.998 32.202 143.112 32.232L143.04 32.547C142.818 32.469 142.581 32.43 142.329 32.43C141.975 32.43 141.72 32.523 141.564 32.709C141.408 32.895 141.33 33.201 141.33 33.627V34.23H142.428V34.536ZM143.535 32.484C143.649 32.484 143.724 32.514 143.76 32.574C143.802 32.634 143.823 32.712 143.823 32.808C143.823 32.904 143.802 32.982 143.76 33.042C143.724 33.102 143.649 33.132 143.535 33.132C143.439 33.132 143.37 33.102 143.328 33.042C143.286 32.982 143.265 32.904 143.265 32.808C143.265 32.712 143.286 32.634 143.328 32.574C143.37 32.514 143.439 32.484 143.535 32.484ZM143.715 34.23V39H143.364V34.23H143.715ZM147.106 34.14C147.52 34.14 147.847 34.221 148.087 34.383C148.327 34.545 148.516 34.755 148.654 35.013H148.681L148.735 34.23H149.023V39.198C149.023 39.792 148.867 40.266 148.555 40.62C148.249 40.98 147.733 41.16 147.007 41.16C146.647 41.16 146.329 41.127 146.053 41.061C145.783 41.001 145.54 40.926 145.324 40.836V40.467C145.54 40.575 145.792 40.665 146.08 40.737C146.368 40.809 146.68 40.845 147.016 40.845C147.61 40.845 148.033 40.695 148.285 40.395C148.543 40.101 148.672 39.705 148.672 39.207V38.865C148.672 38.715 148.672 38.577 148.672 38.451C148.678 38.319 148.687 38.178 148.699 38.028H148.672C148.552 38.376 148.348 38.64 148.06 38.82C147.778 39 147.427 39.09 147.007 39.09C146.395 39.09 145.915 38.886 145.567 38.478C145.219 38.064 145.045 37.464 145.045 36.678C145.045 35.898 145.219 35.28 145.567 34.824C145.915 34.368 146.428 34.14 147.106 34.14ZM147.124 34.455C146.542 34.455 146.11 34.653 145.828 35.049C145.546 35.439 145.405 35.982 145.405 36.678C145.405 37.362 145.543 37.884 145.819 38.244C146.101 38.598 146.506 38.775 147.034 38.775C147.472 38.775 147.808 38.682 148.042 38.496C148.282 38.304 148.447 38.058 148.537 37.758C148.633 37.452 148.681 37.128 148.681 36.786V36.399C148.681 36.015 148.63 35.679 148.528 35.391C148.432 35.097 148.27 34.869 148.042 34.707C147.82 34.539 147.514 34.455 147.124 34.455ZM155.466 34.14C155.898 34.14 156.246 34.272 156.51 34.536C156.78 34.8 156.915 35.211 156.915 35.769V39H156.573V35.787C156.573 35.325 156.465 34.989 156.249 34.779C156.039 34.563 155.769 34.455 155.439 34.455C154.983 34.455 154.62 34.587 154.35 34.851C154.08 35.115 153.945 35.541 153.945 36.129V39H153.603V35.787C153.603 35.325 153.495 34.989 153.279 34.779C153.069 34.563 152.799 34.455 152.469 34.455C152.037 34.455 151.68 34.59 151.398 34.86C151.122 35.13 150.984 35.565 150.984 36.165V39H150.633V34.23H150.912L150.966 35.058H150.993C151.059 34.902 151.155 34.755 151.281 34.617C151.413 34.479 151.578 34.365 151.776 34.275C151.974 34.185 152.214 34.14 152.496 34.14C152.832 34.14 153.117 34.221 153.351 34.383C153.591 34.545 153.756 34.782 153.846 35.094H153.864C153.99 34.8 154.188 34.569 154.458 34.401C154.728 34.227 155.064 34.14 155.466 34.14ZM160.075 34.149C160.585 34.149 160.966 34.284 161.218 34.554C161.476 34.818 161.605 35.241 161.605 35.823V39H161.326L161.263 38.118H161.245C161.101 38.394 160.897 38.625 160.633 38.811C160.375 38.997 160.009 39.09 159.535 39.09C159.067 39.09 158.707 38.976 158.455 38.748C158.209 38.52 158.086 38.205 158.086 37.803C158.086 37.329 158.281 36.972 158.671 36.732C159.067 36.486 159.628 36.345 160.354 36.309L161.254 36.255V35.895C161.254 35.379 161.155 35.013 160.957 34.797C160.759 34.575 160.462 34.464 160.066 34.464C159.604 34.464 159.133 34.584 158.653 34.824L158.545 34.518C158.773 34.41 159.016 34.323 159.274 34.257C159.532 34.185 159.799 34.149 160.075 34.149ZM160.39 36.588C159.778 36.618 159.301 36.729 158.959 36.921C158.617 37.113 158.446 37.407 158.446 37.803C158.446 38.115 158.545 38.358 158.743 38.532C158.941 38.7 159.217 38.784 159.571 38.784C160.135 38.784 160.555 38.625 160.831 38.307C161.107 37.983 161.248 37.557 161.254 37.029V36.552L160.39 36.588Z" fill="black"/>
<path d="M42.0837 18.0233V23.2045H19.0484V18.0233H17.3208V38.748H19.0484V24.9315H42.0837V38.748H43.8114V18.0233H42.0837Z" fill="#C2C2C2"/>
<path d="M42.0837 16.2963H19.0485V18.0233H42.0837V16.2963Z" fill="#C2C2C2"/>
<path d="M42.0837 38.748H19.0485V40.475H42.0837V38.748Z" fill="#C2C2C2"/>
<path d="M40.3561 19.7504H38.6284V21.4775H40.3561V19.7504Z" fill="#C2C2C2"/>
<path d="M36.9007 19.7504H35.1731V21.4775H36.9007V19.7504Z" fill="#C2C2C2"/>
<path d="M39.7801 27.2343H21.3519V28.9613H39.7801V27.2343Z" fill="#C2C2C2"/>
<path d="M30.566 31.2641H21.3519V32.9911H30.566V31.2641Z" fill="#C2C2C2"/>
</svg>
