<svg width="216" height="55" viewBox="0 0 216 55" fill="none" xmlns="http://www.w3.org/2000/svg">
<rect x="0.5" y="0.5" width="200" height="54" rx="9.5" stroke="#B5B5B5"/>
<path d="M59.716 18.824C59.02 18.824 58.488 19.084 58.12 19.604C57.752 20.124 57.568 20.836 57.568 21.74C57.568 22.652 57.736 23.36 58.072 23.864C58.416 24.36 58.964 24.608 59.716 24.608C60.068 24.608 60.416 24.568 60.76 24.488C61.112 24.408 61.492 24.296 61.9 24.152V25.676C61.524 25.828 61.152 25.94 60.784 26.012C60.416 26.084 60.004 26.12 59.548 26.12C58.668 26.12 57.94 25.94 57.364 25.58C56.796 25.212 56.376 24.7 56.104 24.044C55.832 23.38 55.696 22.608 55.696 21.728C55.696 20.864 55.852 20.1 56.164 19.436C56.476 18.772 56.928 18.252 57.52 17.876C58.12 17.5 58.852 17.312 59.716 17.312C60.14 17.312 60.564 17.368 60.988 17.48C61.42 17.584 61.832 17.728 62.224 17.912L61.636 19.388C61.316 19.236 60.992 19.104 60.664 18.992C60.344 18.88 60.028 18.824 59.716 18.824ZM70.4406 17.432L67.5246 26H65.5446L62.6406 17.432H64.4766L66.0846 22.532C66.1166 22.62 66.1606 22.784 66.2166 23.024C66.2806 23.256 66.3446 23.504 66.4086 23.768C66.4726 24.024 66.5166 24.24 66.5406 24.416C66.5646 24.24 66.6046 24.024 66.6606 23.768C66.7246 23.504 66.7886 23.256 66.8526 23.024C66.9166 22.784 66.9606 22.62 66.9846 22.532L68.6046 17.432H70.4406ZM78.4585 17.432L75.2665 26H73.6465L76.8385 17.432H78.4585ZM85.2127 17.432C86.3807 17.432 87.2407 17.644 87.7927 18.068C88.3527 18.492 88.6327 19.136 88.6327 20C88.6327 20.392 88.5567 20.736 88.4047 21.032C88.2607 21.32 88.0647 21.568 87.8167 21.776C87.5767 21.976 87.3167 22.14 87.0367 22.268L89.5567 26H87.5407L85.5007 22.712H84.5287V26H82.7167V17.432H85.2127ZM85.0807 18.92H84.5287V21.236H85.1167C85.7167 21.236 86.1447 21.136 86.4007 20.936C86.6647 20.736 86.7967 20.44 86.7967 20.048C86.7967 19.64 86.6567 19.352 86.3767 19.184C86.1047 19.008 85.6727 18.92 85.0807 18.92ZM95.5706 26H90.6386V17.432H95.5706V18.92H92.4506V20.804H95.3546V22.292H92.4506V24.5H95.5706V26ZM102.405 23.624C102.405 24.384 102.129 24.992 101.577 25.448C101.033 25.896 100.257 26.12 99.2494 26.12C98.3454 26.12 97.5374 25.948 96.8254 25.604V23.912C97.2334 24.088 97.6534 24.252 98.0854 24.404C98.5254 24.548 98.9614 24.62 99.3934 24.62C99.8414 24.62 100.157 24.536 100.341 24.368C100.533 24.192 100.629 23.972 100.629 23.708C100.629 23.492 100.553 23.308 100.401 23.156C100.257 23.004 100.061 22.864 99.8134 22.736C99.5654 22.6 99.2814 22.456 98.9614 22.304C98.7614 22.208 98.5454 22.096 98.3134 21.968C98.0814 21.832 97.8574 21.668 97.6414 21.476C97.4334 21.276 97.2614 21.036 97.1254 20.756C96.9894 20.476 96.9214 20.14 96.9214 19.748C96.9214 18.98 97.1814 18.384 97.7014 17.96C98.2214 17.528 98.9294 17.312 99.8254 17.312C100.273 17.312 100.697 17.364 101.097 17.468C101.505 17.572 101.929 17.72 102.369 17.912L101.781 19.328C101.389 19.168 101.037 19.044 100.725 18.956C100.413 18.868 100.093 18.824 99.7654 18.824C99.4214 18.824 99.1574 18.904 98.9734 19.064C98.7894 19.224 98.6974 19.432 98.6974 19.688C98.6974 19.992 98.8334 20.232 99.1054 20.408C99.3774 20.584 99.7814 20.8 100.317 21.056C100.757 21.264 101.129 21.48 101.433 21.704C101.745 21.928 101.985 22.192 102.153 22.496C102.321 22.8 102.405 23.176 102.405 23.624ZM110.935 22.976C110.935 23.568 110.803 24.104 110.539 24.584C110.283 25.056 109.891 25.432 109.363 25.712C108.843 25.984 108.183 26.12 107.383 26.12C106.247 26.12 105.383 25.832 104.791 25.256C104.199 24.672 103.903 23.904 103.903 22.952V17.432H105.715V22.676C105.715 23.38 105.859 23.876 106.147 24.164C106.435 24.452 106.863 24.596 107.431 24.596C108.023 24.596 108.451 24.44 108.715 24.128C108.987 23.816 109.123 23.328 109.123 22.664V17.432H110.935V22.976ZM116.657 26L114.593 19.28H114.545C114.553 19.44 114.565 19.68 114.581 20C114.597 20.32 114.613 20.664 114.629 21.032C114.645 21.392 114.653 21.72 114.653 22.016V26H113.033V17.432H115.505L117.533 23.984H117.569L119.717 17.432H122.189V26H120.497V21.944C120.497 21.672 120.501 21.36 120.509 21.008C120.525 20.656 120.537 20.324 120.545 20.012C120.561 19.692 120.573 19.452 120.581 19.292H120.533L118.325 26H116.657ZM129.285 26H124.353V17.432H129.285V18.92H126.165V20.804H129.069V22.292H126.165V24.5H129.285V26Z" fill="black"/>
<path d="M58.493 39H58.142V32.898H56.036V32.574H60.608V32.898H58.493V39ZM62.3321 34.149C62.8421 34.149 63.2231 34.284 63.4751 34.554C63.7331 34.818 63.8621 35.241 63.8621 35.823V39H63.5831L63.5201 38.118H63.5021C63.3581 38.394 63.1541 38.625 62.8901 38.811C62.6321 38.997 62.2661 39.09 61.7921 39.09C61.3241 39.09 60.9641 38.976 60.7121 38.748C60.4661 38.52 60.3431 38.205 60.3431 37.803C60.3431 37.329 60.5381 36.972 60.9281 36.732C61.3241 36.486 61.8851 36.345 62.6111 36.309L63.5111 36.255V35.895C63.5111 35.379 63.4121 35.013 63.2141 34.797C63.0161 34.575 62.7191 34.464 62.3231 34.464C61.8611 34.464 61.3901 34.584 60.9101 34.824L60.8021 34.518C61.0301 34.41 61.2731 34.323 61.5311 34.257C61.7891 34.185 62.0561 34.149 62.3321 34.149ZM62.6471 36.588C62.0351 36.618 61.5581 36.729 61.2161 36.921C60.8741 37.113 60.7031 37.407 60.7031 37.803C60.7031 38.115 60.8021 38.358 61.0001 38.532C61.1981 38.7 61.4741 38.784 61.8281 38.784C62.3921 38.784 62.8121 38.625 63.0881 38.307C63.3641 37.983 63.5051 37.557 63.5111 37.029V36.552L62.6471 36.588ZM65.7475 35.571C65.7475 35.823 65.7475 36.069 65.7475 36.309C65.7475 36.543 65.7445 36.786 65.7385 37.038C65.8285 36.93 65.9155 36.828 65.9995 36.732C66.0835 36.636 66.1735 36.534 66.2695 36.426L68.2495 34.23H68.6815L66.8185 36.282L68.8525 39H68.4385L66.5755 36.516L65.7475 37.407V39H65.4055V32.16H65.7475V35.571ZM71.424 34.14C71.832 34.14 72.165 34.239 72.423 34.437C72.687 34.629 72.882 34.893 73.008 35.229C73.14 35.559 73.206 35.934 73.206 36.354V36.633H69.714C69.708 37.323 69.861 37.854 70.173 38.226C70.491 38.592 70.944 38.775 71.532 38.775C71.826 38.775 72.078 38.754 72.288 38.712C72.504 38.664 72.747 38.577 73.017 38.451V38.793C72.783 38.895 72.549 38.97 72.315 39.018C72.087 39.066 71.823 39.09 71.523 39.09C71.037 39.09 70.632 38.988 70.308 38.784C69.99 38.58 69.75 38.295 69.588 37.929C69.432 37.563 69.354 37.14 69.354 36.66C69.354 36.198 69.432 35.778 69.588 35.4C69.744 35.016 69.975 34.71 70.281 34.482C70.587 34.254 70.968 34.14 71.424 34.14ZM71.424 34.455C70.944 34.455 70.554 34.617 70.254 34.941C69.954 35.259 69.777 35.721 69.723 36.327H72.846C72.846 35.769 72.729 35.319 72.495 34.977C72.261 34.629 71.904 34.455 71.424 34.455ZM81.7082 34.14C82.1402 34.14 82.4882 34.272 82.7522 34.536C83.0222 34.8 83.1572 35.211 83.1572 35.769V39H82.8152V35.787C82.8152 35.325 82.7072 34.989 82.4912 34.779C82.2812 34.563 82.0112 34.455 81.6812 34.455C81.2252 34.455 80.8622 34.587 80.5922 34.851C80.3222 35.115 80.1872 35.541 80.1872 36.129V39H79.8452V35.787C79.8452 35.325 79.7372 34.989 79.5212 34.779C79.3112 34.563 79.0412 34.455 78.7112 34.455C78.2792 34.455 77.9222 34.59 77.6402 34.86C77.3642 35.13 77.2262 35.565 77.2262 36.165V39H76.8752V34.23H77.1542L77.2082 35.058H77.2352C77.3012 34.902 77.3972 34.755 77.5232 34.617C77.6552 34.479 77.8202 34.365 78.0182 34.275C78.2162 34.185 78.4562 34.14 78.7382 34.14C79.0742 34.14 79.3592 34.221 79.5932 34.383C79.8332 34.545 79.9982 34.782 80.0882 35.094H80.1062C80.2322 34.8 80.4302 34.569 80.7002 34.401C80.9702 34.227 81.3062 34.14 81.7082 34.14ZM83.8965 34.23H84.2655L85.4625 37.344C85.5645 37.62 85.6515 37.86 85.7235 38.064C85.7955 38.268 85.8555 38.439 85.9035 38.577H85.9215C85.9635 38.445 86.0205 38.277 86.0925 38.073C86.1645 37.869 86.2515 37.635 86.3535 37.371L87.5415 34.23H87.9105L85.7055 39.963C85.5495 40.365 85.3725 40.668 85.1745 40.872C84.9825 41.076 84.7215 41.178 84.3915 41.178C84.2115 41.178 84.0375 41.151 83.8695 41.097V40.782C83.9535 40.806 84.0315 40.827 84.1035 40.845C84.1815 40.863 84.2685 40.872 84.3645 40.872C84.6045 40.872 84.7995 40.794 84.9495 40.638C85.1055 40.482 85.2525 40.224 85.3905 39.864L85.7325 38.964L83.8965 34.23ZM93.8872 32.808C93.3112 32.808 92.8192 32.934 92.4112 33.186C92.0092 33.438 91.7002 33.789 91.4842 34.239C91.2742 34.683 91.1692 35.193 91.1692 35.769C91.1692 36.369 91.2652 36.894 91.4572 37.344C91.6492 37.794 91.9342 38.145 92.3122 38.397C92.6962 38.643 93.1732 38.766 93.7432 38.766C94.0792 38.766 94.3792 38.742 94.6432 38.694C94.9132 38.646 95.1592 38.583 95.3812 38.505V38.811C95.1712 38.895 94.9312 38.961 94.6612 39.009C94.3912 39.063 94.0792 39.09 93.7252 39.09C93.0832 39.09 92.5462 38.952 92.1142 38.676C91.6822 38.4 91.3552 38.013 91.1332 37.515C90.9172 37.011 90.8092 36.426 90.8092 35.76C90.8092 35.136 90.9292 34.578 91.1692 34.086C91.4152 33.588 91.7662 33.198 92.2222 32.916C92.6842 32.628 93.2392 32.484 93.8872 32.484C94.4872 32.484 95.0332 32.598 95.5252 32.826L95.3812 33.141C95.1412 33.015 94.8952 32.928 94.6432 32.88C94.3912 32.832 94.1392 32.808 93.8872 32.808ZM100.945 32.574L98.5417 39H98.1997L95.8057 32.574H96.1747L98.0197 37.506C98.0917 37.698 98.1577 37.884 98.2177 38.064C98.2777 38.238 98.3317 38.4 98.3797 38.55C98.4217 38.4 98.4697 38.244 98.5237 38.082C98.5837 37.914 98.6527 37.722 98.7307 37.506L100.567 32.574H100.945ZM103.987 32.808C103.987 32.712 104.008 32.634 104.05 32.574C104.092 32.514 104.161 32.484 104.257 32.484C104.371 32.484 104.446 32.514 104.482 32.574C104.524 32.634 104.545 32.712 104.545 32.808C104.545 32.904 104.524 32.982 104.482 33.042C104.446 33.102 104.371 33.132 104.257 33.132C104.161 33.132 104.092 33.102 104.05 33.042C104.008 32.982 103.987 32.904 103.987 32.808ZM103.402 41.16C103.282 41.16 103.174 41.151 103.078 41.133C102.982 41.115 102.898 41.094 102.826 41.07V40.746C102.916 40.788 103.009 40.815 103.105 40.827C103.195 40.839 103.288 40.845 103.384 40.845C103.852 40.845 104.086 40.557 104.086 39.981V34.23H104.437V40.008C104.437 40.392 104.338 40.68 104.14 40.872C103.948 41.064 103.702 41.16 103.402 41.16ZM109.664 34.23V39H109.376L109.322 38.073H109.304C109.19 38.343 108.995 38.58 108.719 38.784C108.449 38.988 108.08 39.09 107.612 39.09C106.514 39.09 105.965 38.511 105.965 37.353V34.23H106.316V37.317C106.316 37.821 106.43 38.19 106.658 38.424C106.886 38.658 107.213 38.775 107.639 38.775C108.161 38.775 108.569 38.622 108.863 38.316C109.163 38.01 109.313 37.542 109.313 36.912V34.23H109.664ZM114.219 37.767C114.219 38.181 114.063 38.505 113.751 38.739C113.445 38.973 112.995 39.09 112.401 39.09C112.071 39.09 111.774 39.06 111.51 39C111.246 38.94 111.027 38.868 110.853 38.784V38.424C111.081 38.538 111.327 38.628 111.591 38.694C111.855 38.754 112.128 38.784 112.41 38.784C112.926 38.784 113.298 38.694 113.526 38.514C113.754 38.334 113.868 38.091 113.868 37.785C113.868 37.575 113.808 37.404 113.688 37.272C113.574 37.14 113.412 37.029 113.202 36.939C112.992 36.849 112.752 36.762 112.482 36.678C112.194 36.582 111.936 36.489 111.708 36.399C111.48 36.303 111.3 36.177 111.168 36.021C111.036 35.859 110.97 35.634 110.97 35.346C110.97 34.968 111.12 34.674 111.42 34.464C111.726 34.248 112.134 34.14 112.644 34.14C112.926 34.14 113.19 34.167 113.436 34.221C113.682 34.275 113.904 34.344 114.102 34.428L113.967 34.734C113.793 34.65 113.586 34.584 113.346 34.536C113.106 34.482 112.869 34.455 112.635 34.455C112.221 34.455 111.897 34.53 111.663 34.68C111.435 34.824 111.321 35.043 111.321 35.337C111.321 35.559 111.378 35.73 111.492 35.85C111.606 35.97 111.762 36.069 111.96 36.147C112.158 36.219 112.386 36.3 112.644 36.39C112.92 36.48 113.175 36.576 113.409 36.678C113.649 36.774 113.844 36.906 113.994 37.074C114.144 37.242 114.219 37.473 114.219 37.767ZM116.639 38.775C116.777 38.775 116.903 38.766 117.017 38.748C117.137 38.73 117.245 38.703 117.341 38.667V38.964C117.245 39 117.137 39.03 117.017 39.054C116.897 39.078 116.762 39.09 116.612 39.09C116.198 39.09 115.901 38.973 115.721 38.739C115.541 38.505 115.451 38.163 115.451 37.713V34.536H114.731V34.302L115.451 34.221L115.559 33.069H115.802V34.23H117.314V34.536H115.802V37.686C115.802 38.04 115.862 38.31 115.982 38.496C116.108 38.682 116.327 38.775 116.639 38.775ZM122.533 34.158C122.665 34.158 122.788 34.167 122.902 34.185C123.016 34.197 123.124 34.218 123.226 34.248L123.163 34.572C123.055 34.542 122.95 34.521 122.848 34.509C122.752 34.491 122.641 34.482 122.515 34.482C122.041 34.482 121.681 34.65 121.435 34.986C121.195 35.322 121.075 35.775 121.075 36.345V39H120.733V34.23H121.039L121.066 35.139H121.093C121.189 34.863 121.357 34.632 121.597 34.446C121.843 34.254 122.155 34.158 122.533 34.158ZM124.34 32.484C124.454 32.484 124.529 32.514 124.565 32.574C124.607 32.634 124.628 32.712 124.628 32.808C124.628 32.904 124.607 32.982 124.565 33.042C124.529 33.102 124.454 33.132 124.34 33.132C124.244 33.132 124.175 33.102 124.133 33.042C124.091 32.982 124.07 32.904 124.07 32.808C124.07 32.712 124.091 32.634 124.133 32.574C124.175 32.514 124.244 32.484 124.34 32.484ZM124.52 34.23V39H124.169V34.23H124.52ZM127.902 34.14C128.316 34.14 128.643 34.221 128.883 34.383C129.123 34.545 129.312 34.755 129.45 35.013H129.477L129.531 34.23H129.819V39.198C129.819 39.792 129.663 40.266 129.351 40.62C129.045 40.98 128.529 41.16 127.803 41.16C127.443 41.16 127.125 41.127 126.849 41.061C126.579 41.001 126.336 40.926 126.12 40.836V40.467C126.336 40.575 126.588 40.665 126.876 40.737C127.164 40.809 127.476 40.845 127.812 40.845C128.406 40.845 128.829 40.695 129.081 40.395C129.339 40.101 129.468 39.705 129.468 39.207V38.865C129.468 38.715 129.468 38.577 129.468 38.451C129.474 38.319 129.483 38.178 129.495 38.028H129.468C129.348 38.376 129.144 38.64 128.856 38.82C128.574 39 128.223 39.09 127.803 39.09C127.191 39.09 126.711 38.886 126.363 38.478C126.015 38.064 125.841 37.464 125.841 36.678C125.841 35.898 126.015 35.28 126.363 34.824C126.711 34.368 127.224 34.14 127.902 34.14ZM127.92 34.455C127.338 34.455 126.906 34.653 126.624 35.049C126.342 35.439 126.201 35.982 126.201 36.678C126.201 37.362 126.339 37.884 126.615 38.244C126.897 38.598 127.302 38.775 127.83 38.775C128.268 38.775 128.604 38.682 128.838 38.496C129.078 38.304 129.243 38.058 129.333 37.758C129.429 37.452 129.477 37.128 129.477 36.786V36.399C129.477 36.015 129.426 35.679 129.324 35.391C129.228 35.097 129.066 34.869 128.838 34.707C128.616 34.539 128.31 34.455 127.92 34.455ZM131.78 34.464C131.78 34.596 131.777 34.716 131.771 34.824C131.765 34.926 131.759 35.04 131.753 35.166H131.78C131.888 34.89 132.08 34.653 132.356 34.455C132.632 34.251 133.004 34.149 133.472 34.149C133.994 34.149 134.399 34.29 134.687 34.572C134.975 34.848 135.119 35.283 135.119 35.877V39H134.768V35.895C134.768 35.397 134.654 35.034 134.426 34.806C134.198 34.572 133.871 34.455 133.445 34.455C132.923 34.455 132.515 34.611 132.221 34.923C131.927 35.229 131.78 35.697 131.78 36.327V39H131.429V32.16H131.78V34.464ZM137.873 38.775C138.011 38.775 138.137 38.766 138.251 38.748C138.371 38.73 138.479 38.703 138.575 38.667V38.964C138.479 39 138.371 39.03 138.251 39.054C138.131 39.078 137.996 39.09 137.846 39.09C137.432 39.09 137.135 38.973 136.955 38.739C136.775 38.505 136.685 38.163 136.685 37.713V34.536H135.965V34.302L136.685 34.221L136.793 33.069H137.036V34.23H138.548V34.536H137.036V37.686C137.036 38.04 137.096 38.31 137.216 38.496C137.342 38.682 137.561 38.775 137.873 38.775ZM142.309 34.464C142.309 34.596 142.306 34.716 142.3 34.824C142.294 34.926 142.288 35.04 142.282 35.166H142.309C142.417 34.89 142.609 34.653 142.885 34.455C143.161 34.251 143.533 34.149 144.001 34.149C144.523 34.149 144.928 34.29 145.216 34.572C145.504 34.848 145.648 35.283 145.648 35.877V39H145.297V35.895C145.297 35.397 145.183 35.034 144.955 34.806C144.727 34.572 144.4 34.455 143.974 34.455C143.452 34.455 143.044 34.611 142.75 34.923C142.456 35.229 142.309 35.697 142.309 36.327V39H141.958V32.16H142.309V34.464ZM148.988 34.14C149.396 34.14 149.729 34.239 149.987 34.437C150.251 34.629 150.446 34.893 150.572 35.229C150.704 35.559 150.77 35.934 150.77 36.354V36.633H147.278C147.272 37.323 147.425 37.854 147.737 38.226C148.055 38.592 148.508 38.775 149.096 38.775C149.39 38.775 149.642 38.754 149.852 38.712C150.068 38.664 150.311 38.577 150.581 38.451V38.793C150.347 38.895 150.113 38.97 149.879 39.018C149.651 39.066 149.387 39.09 149.087 39.09C148.601 39.09 148.196 38.988 147.872 38.784C147.554 38.58 147.314 38.295 147.152 37.929C146.996 37.563 146.918 37.14 146.918 36.66C146.918 36.198 146.996 35.778 147.152 35.4C147.308 35.016 147.539 34.71 147.845 34.482C148.151 34.254 148.532 34.14 148.988 34.14ZM148.988 34.455C148.508 34.455 148.118 34.617 147.818 34.941C147.518 35.259 147.341 35.721 147.287 36.327H150.41C150.41 35.769 150.293 35.319 150.059 34.977C149.825 34.629 149.468 34.455 148.988 34.455ZM153.91 34.158C154.042 34.158 154.165 34.167 154.279 34.185C154.393 34.197 154.501 34.218 154.603 34.248L154.54 34.572C154.432 34.542 154.327 34.521 154.225 34.509C154.129 34.491 154.018 34.482 153.892 34.482C153.418 34.482 153.058 34.65 152.812 34.986C152.572 35.322 152.452 35.775 152.452 36.345V39H152.11V34.23H152.416L152.443 35.139H152.47C152.566 34.863 152.734 34.632 152.974 34.446C153.22 34.254 153.532 34.158 153.91 34.158ZM157.161 34.14C157.569 34.14 157.902 34.239 158.16 34.437C158.424 34.629 158.619 34.893 158.745 35.229C158.877 35.559 158.943 35.934 158.943 36.354V36.633H155.451C155.445 37.323 155.598 37.854 155.91 38.226C156.228 38.592 156.681 38.775 157.269 38.775C157.563 38.775 157.815 38.754 158.025 38.712C158.241 38.664 158.484 38.577 158.754 38.451V38.793C158.52 38.895 158.286 38.97 158.052 39.018C157.824 39.066 157.56 39.09 157.26 39.09C156.774 39.09 156.369 38.988 156.045 38.784C155.727 38.58 155.487 38.295 155.325 37.929C155.169 37.563 155.091 37.14 155.091 36.66C155.091 36.198 155.169 35.778 155.325 35.4C155.481 35.016 155.712 34.71 156.018 34.482C156.324 34.254 156.705 34.14 157.161 34.14ZM157.161 34.455C156.681 34.455 156.291 34.617 155.991 34.941C155.691 35.259 155.514 35.721 155.46 36.327H158.583C158.583 35.769 158.466 35.319 158.232 34.977C157.998 34.629 157.641 34.455 157.161 34.455Z" fill="black"/>
<path d="M37.7267 12.75H21.3018C19.4779 12.75 18 14.2021 18 15.9928V37.9893C18 39.78 19.4779 41.2321 21.3018 41.2321H37.7254C39.5493 41.2321 41.0271 39.78 41.0271 37.9893V15.9928C41.0284 14.2021 39.5486 12.75 37.7267 12.75ZM21.0944 23.6815C21.0944 22.9214 21.7224 22.3059 22.495 22.3059H22.985C22.4627 21.739 22.1417 20.9893 22.1417 20.163C22.1417 18.397 23.6004 16.965 25.3986 16.965C27.198 16.965 28.6554 18.3964 28.6554 20.1637C28.6554 20.9887 28.3345 21.739 27.8108 22.3059H28.279C29.053 22.3059 29.6796 22.9214 29.6796 23.6815V26.002C29.6796 26.7297 29.1018 27.3186 28.3754 27.3679H22.3986C21.6722 27.3186 21.0944 26.7297 21.0944 26.002V23.6815V23.6815ZM36.6127 37.0165H22.4151C21.6861 37.0165 21.0944 36.4354 21.0944 35.7194C21.0944 35.0034 21.6861 34.4223 22.4151 34.4223H36.6127C37.3417 34.4223 37.9334 35.0034 37.9334 35.7194C37.9334 36.4354 37.3417 37.0165 36.6127 37.0165ZM36.6127 32.1523H22.4151C21.6861 32.1523 21.0944 31.5712 21.0944 30.8552C21.0944 30.1392 21.6861 29.5581 22.4151 29.5581H36.6127C37.3417 29.5581 37.9334 30.1392 37.9334 30.8552C37.9334 31.5712 37.3417 32.1523 36.6127 32.1523ZM36.6127 27.2881H32.3204C31.5914 27.2881 30.9997 26.707 30.9997 25.991C30.9997 25.275 31.5914 24.6939 32.3204 24.6939H36.6127C37.3417 24.6939 37.9334 25.275 37.9334 25.991C37.9334 26.707 37.3417 27.2881 36.6127 27.2881Z" fill="#D6D6D6"/>
</svg>
