<svg width="33" height="33" viewBox="0 0 33 33" fill="none" xmlns="http://www.w3.org/2000/svg">
<path d="M23.893 0H9.10661C4.08523 0 0 4.08542 0 9.10681V23.8932C0 28.9148 4.08523 33 9.10661 33H23.893C28.9148 33 33 28.9146 33 23.8932V9.10681C33.0002 4.08542 28.9148 0 23.893 0ZM30.0723 23.8932C30.0723 27.3003 27.3003 30.0721 23.8932 30.0721H9.10661C5.69968 30.0723 2.92792 27.3003 2.92792 23.8932V9.10681C2.92792 5.69988 5.69968 2.92792 9.10661 2.92792H23.893C27.3001 2.92792 30.0721 5.69988 30.0721 9.10681V23.8932H30.0723Z" fill="#2E2E2E"/>
<path d="M16.5002 7.99713C11.8114 7.99713 7.99695 11.8116 7.99695 16.5004C7.99695 21.189 11.8114 25.0033 16.5002 25.0033C21.189 25.0033 25.0035 21.189 25.0035 16.5004C25.0035 11.8116 21.189 7.99713 16.5002 7.99713ZM16.5002 22.0752C13.4261 22.0752 10.9249 19.5743 10.9249 16.5002C10.9249 13.4259 13.4259 10.9249 16.5002 10.9249C19.5745 10.9249 22.0756 13.4259 22.0756 16.5002C22.0756 19.5743 19.5743 22.0752 16.5002 22.0752Z" fill="#2E2E2E"/>
<path d="M25.36 5.51447C24.7959 5.51447 24.2418 5.74284 23.8434 6.14299C23.443 6.54119 23.2129 7.09554 23.2129 7.66161C23.2129 8.22591 23.4432 8.78007 23.8434 9.18022C24.2416 9.57842 24.7959 9.80875 25.36 9.80875C25.9261 9.80875 26.4785 9.57842 26.8786 9.18022C27.2788 8.78007 27.5072 8.22572 27.5072 7.66161C27.5072 7.09554 27.2788 6.54119 26.8786 6.14299C26.4805 5.74284 25.9261 5.51447 25.36 5.51447Z" fill="#2E2E2E"/>
</svg>
