<svg width="48" height="32" viewBox="0 0 48 32" fill="none" xmlns="http://www.w3.org/2000/svg">
<path d="M31.169 0H16.8307C11.9614 0 8 3.96162 8 8.83084V23.1692C8 28.0386 11.9614 32 16.8307 32H31.169C36.0386 32 40 28.0384 40 23.1692V8.83084C40.0002 3.96162 36.0386 0 31.169 0ZM37.161 23.1692C37.161 26.473 34.473 29.1608 31.1692 29.1608H16.8307C13.527 29.161 10.8392 26.473 10.8392 23.1692V8.83084C10.8392 5.52716 13.527 2.8392 16.8307 2.8392H31.169C34.4728 2.8392 37.1608 5.52716 37.1608 8.83084V23.1692H37.161Z" fill="#2E2E2E"/>
<path d="M24.0001 7.75479C19.4534 7.75479 15.7545 11.4537 15.7545 16.0004C15.7545 20.5469 19.4534 24.2456 24.0001 24.2456C28.5468 24.2456 32.2457 20.5469 32.2457 16.0004C32.2457 11.4537 28.5468 7.75479 24.0001 7.75479ZM24.0001 21.4062C21.0191 21.4062 18.5937 18.9812 18.5937 16.0002C18.5937 13.019 21.019 10.5938 24.0001 10.5938C26.9813 10.5938 29.4065 13.019 29.4065 16.0002C29.4065 18.9812 26.9811 21.4062 24.0001 21.4062Z" fill="#2E2E2E"/>
<path d="M32.5916 5.34735C32.0446 5.34735 31.5072 5.56881 31.1209 5.95683C30.7327 6.34296 30.5095 6.88052 30.5095 7.42943C30.5095 7.97663 30.7329 8.514 31.1209 8.90202C31.507 9.28815 32.0446 9.5115 32.5916 9.5115C33.1405 9.5115 33.6762 9.28815 34.0642 8.90202C34.4522 8.514 34.6737 7.97645 34.6737 7.42943C34.6737 6.88052 34.4522 6.34296 34.0642 5.95683C33.6781 5.56881 33.1405 5.34735 32.5916 5.34735Z" fill="#2E2E2E"/>
</svg>
