<svg width="48" height="32" viewBox="0 0 48 32" fill="none" xmlns="http://www.w3.org/2000/svg">
<path d="M33.6269 13.0078C34.1067 13.0078 34.4931 13.4068 34.4931 13.8912C34.4931 14.3742 34.1067 14.7732 33.6269 14.7732H31.2138V16.3483H33.6269C34.1067 16.3483 34.4931 16.7445 34.4931 17.2303C34.4931 17.7119 34.1067 18.1109 33.6269 18.1109H30.3461C29.8718 18.1109 29.484 17.7119 29.484 17.2303V10.5507C29.484 10.0677 29.8718 9.66867 30.3503 9.66867H33.631C34.1068 9.66867 34.4931 10.0677 34.4931 10.5507C34.4931 11.0393 34.1067 11.4327 33.6269 11.4327H31.2138V13.0078H33.6269V13.0078ZM28.3263 17.2303C28.3263 17.6083 28.087 17.9443 27.7323 18.0647C27.6443 18.0941 27.5494 18.1081 27.4586 18.1081C27.1685 18.1081 26.921 17.9821 26.7574 17.7581L23.3982 13.1142V17.2303C23.3982 17.7119 23.0146 18.1109 22.5306 18.1109C22.0549 18.1109 21.6699 17.7119 21.6699 17.2303V10.5507C21.6699 10.1727 21.9077 9.83668 22.2611 9.71767C22.3436 9.68547 22.4481 9.67147 22.5279 9.67147C22.796 9.67147 23.0435 9.81708 23.2085 10.0271L26.5938 14.6892V10.5507C26.5938 10.0677 26.9815 9.66867 27.46 9.66867C27.9344 9.66867 28.3263 10.0677 28.3263 10.5507V17.2303V17.2303ZM20.4324 17.2303C20.4324 17.7119 20.0446 18.1109 19.5647 18.1109C19.0904 18.1109 18.7026 17.7119 18.7026 17.2303V10.5507C18.7026 10.0677 19.0904 9.66867 19.5689 9.66867C20.0446 9.66867 20.4324 10.0677 20.4324 10.5507V17.2303V17.2303ZM17.0416 18.1109H13.7609C13.2865 18.1109 12.8946 17.7119 12.8946 17.2303V10.5507C12.8946 10.0677 13.2865 9.66867 13.7609 9.66867C14.2394 9.66867 14.6271 10.0677 14.6271 10.5507V16.3483H17.0416C17.5201 16.3483 17.9065 16.7445 17.9065 17.2303C17.9065 17.7119 17.5187 18.1109 17.0416 18.1109V18.1109ZM40 13.6392C40 6.11957 32.5956 0 23.5 0C14.4044 0 7 6.11957 7 13.6392C7 20.3748 12.8712 26.0183 20.7981 27.0908C21.3357 27.2056 22.0673 27.452 22.2529 27.9168C22.4179 28.3382 22.3615 28.9892 22.3051 29.4288L22.0796 30.8569C22.0178 31.2783 21.7496 32.5173 23.522 31.7599C25.2971 31.0053 33.0315 26.0505 36.4965 21.9946C38.867 19.3499 40 16.6409 40 13.6392Z" fill="#2E2E2E"/>
</svg>
