<svg width="34" height="33" viewBox="0 0 34 33" fill="none" xmlns="http://www.w3.org/2000/svg">
<path d="M27.4337 13.4143C27.9282 13.4143 28.3263 13.8257 28.3263 14.3253C28.3263 14.8234 27.9282 15.2349 27.4337 15.2349H24.9475V16.8591H27.4337C27.9282 16.8591 28.3263 17.2677 28.3263 17.7687C28.3263 18.2654 27.9282 18.6769 27.4337 18.6769H24.0536C23.5648 18.6769 23.1653 18.2654 23.1653 17.7687V10.8804C23.1653 10.3823 23.5648 9.97082 24.0578 9.97082H27.438C27.9282 9.97082 28.3263 10.3823 28.3263 10.8804C28.3263 11.3843 27.9282 11.79 27.4337 11.79H24.9475V13.4143H27.4337V13.4143ZM21.9725 17.7687C21.9725 18.1586 21.726 18.5051 21.3605 18.6292C21.2698 18.6596 21.1721 18.674 21.0786 18.674C20.7797 18.674 20.5247 18.544 20.3561 18.313L16.8952 13.524V17.7687C16.8952 18.2654 16.4999 18.6769 16.0012 18.6769C15.5111 18.6769 15.1144 18.2654 15.1144 17.7687V10.8804C15.1144 10.4906 15.3595 10.1441 15.7236 10.0214C15.8086 9.98814 15.9162 9.97371 15.9984 9.97371C16.2747 9.97371 16.5297 10.1239 16.6997 10.3404L20.1875 15.1483V10.8804C20.1875 10.3823 20.587 9.97082 21.08 9.97082C21.5687 9.97082 21.9725 10.3823 21.9725 10.8804V17.7687V17.7687ZM13.8394 17.7687C13.8394 18.2654 13.4399 18.6769 12.9455 18.6769C12.4567 18.6769 12.0572 18.2654 12.0572 17.7687V10.8804C12.0572 10.3823 12.4567 9.97082 12.9497 9.97082C13.4399 9.97082 13.8394 10.3823 13.8394 10.8804V17.7687V17.7687ZM10.3459 18.6769H6.96575C6.477 18.6769 6.07325 18.2654 6.07325 17.7687V10.8804C6.07325 10.3823 6.477 9.97082 6.96575 9.97082C7.45875 9.97082 7.85825 10.3823 7.85825 10.8804V16.8591H10.3459C10.8389 16.8591 11.237 17.2677 11.237 17.7687C11.237 18.2654 10.8375 18.6769 10.3459 18.6769V18.6769ZM34 14.0654C34 6.31081 26.3712 0 17 0C7.62875 0 0 6.31081 0 14.0654C0 21.0115 6.04917 26.8314 14.2162 27.9374C14.7702 28.0557 15.5238 28.3098 15.7151 28.7892C15.8851 29.2238 15.827 29.8951 15.7689 30.3485L15.5366 31.8211C15.4728 32.2557 15.1966 33.5335 17.0227 32.7524C18.8516 31.9742 26.8203 26.8646 30.3903 22.682C32.8327 19.9546 34 17.1609 34 14.0654Z" fill="#2E2E2E"/>
</svg>
