<svg width="33" height="33" viewBox="0 0 33 33" fill="none" xmlns="http://www.w3.org/2000/svg">
<path d="M30.0149 0H2.98512C1.3365 0 0 1.3365 0 2.98512V30.0148C0 31.6635 1.3365 33 2.98512 33H30.0148C31.6635 33 33 31.6635 33 30.0148V2.98512C33 1.3365 31.6635 0 30.0149 0ZM10.2116 28.4944C10.2116 28.9742 9.82268 29.3631 9.34289 29.3631H5.64499C5.16519 29.3631 4.77627 28.9742 4.77627 28.4944V12.9929C4.77627 12.5131 5.16519 12.1242 5.64499 12.1242H9.34289C9.82268 12.1242 10.2116 12.5131 10.2116 12.9929V28.4944ZM7.49394 10.663C5.55376 10.663 3.98091 9.09012 3.98091 7.14994C3.98091 5.20977 5.55376 3.63691 7.49394 3.63691C9.43411 3.63691 11.007 5.20977 11.007 7.14994C11.007 9.09012 9.4342 10.663 7.49394 10.663ZM29.5367 28.5643C29.5367 29.0054 29.1791 29.3631 28.738 29.3631H24.7699C24.3288 29.3631 23.9711 29.0054 23.9711 28.5643V21.2933C23.9711 20.2086 24.2893 16.5402 21.1365 16.5402C18.691 16.5402 18.1949 19.0511 18.0953 20.1779V28.5643C18.0953 29.0054 17.7378 29.3631 17.2966 29.3631H13.4587C13.0176 29.3631 12.66 29.0054 12.66 28.5643V12.923C12.66 12.4819 13.0176 12.1242 13.4587 12.1242H17.2966C17.7377 12.1242 18.0953 12.4819 18.0953 12.923V14.2754C19.0021 12.9145 20.3498 11.8641 23.2191 11.8641C29.5731 11.8641 29.5367 17.8003 29.5367 21.0619V28.5643Z" fill="#2E2E2E"/>
</svg>
