<svg width="48" height="32" viewBox="0 0 48 32" fill="none" xmlns="http://www.w3.org/2000/svg">
<g clip-path="url(#clip0)">
<path d="M31.6784 18.3876C31.616 18.3577 29.2831 17.2089 28.8686 17.0597C28.6993 16.999 28.518 16.9396 28.3252 16.9396C28.0102 16.9396 27.7456 17.0966 27.5394 17.405C27.3064 17.7514 26.601 18.576 26.383 18.8223C26.3545 18.8549 26.3157 18.8937 26.2924 18.8937C26.2715 18.8937 25.9105 18.745 25.8012 18.6976C23.2986 17.6105 21.3991 14.9964 21.1386 14.5555C21.1014 14.4922 21.0999 14.4634 21.0996 14.4634C21.1087 14.4298 21.1929 14.3455 21.2363 14.3019C21.3633 14.1762 21.501 14.0105 21.6342 13.8502C21.6973 13.7742 21.7604 13.6982 21.8225 13.6265C22.0157 13.4017 22.1017 13.2271 22.2015 13.0249L22.2537 12.9199C22.4973 12.4361 22.2893 12.0277 22.222 11.8959C22.1669 11.7856 21.1818 9.40821 21.0771 9.15844C20.8253 8.55574 20.4925 8.27512 20.03 8.27512C19.9871 8.27512 20.03 8.27512 19.8501 8.2827C19.631 8.29195 18.4377 8.44904 17.9101 8.78161C17.3507 9.13434 16.4042 10.2587 16.4042 12.2361C16.4042 14.0157 17.5335 15.696 18.0184 16.3351C18.0305 16.3512 18.0526 16.3839 18.0847 16.4309C19.9416 19.1428 22.2565 21.1525 24.6032 22.09C26.8625 22.9924 27.9323 23.0967 28.5405 23.0967C28.5406 23.0967 28.5406 23.0967 28.5406 23.0967C28.7962 23.0967 29.0007 23.0767 29.1812 23.0589L29.2957 23.048C30.0762 22.9788 31.7913 22.0901 32.1814 21.0059C32.4887 20.152 32.5698 19.219 32.3653 18.8804C32.2253 18.6502 31.9839 18.5343 31.6784 18.3876Z" fill="black"/>
<path d="M24.2843 0C15.6177 0 8.56687 6.99782 8.56687 15.5993C8.56687 18.3813 9.31139 21.1045 10.7218 23.4879L8.02225 31.451C7.97196 31.5995 8.00936 31.7636 8.11918 31.8754C8.19845 31.9564 8.30599 32 8.4158 32C8.45788 32 8.50027 31.9937 8.54162 31.9805L16.845 29.3419C19.1172 30.5559 21.6853 31.1968 24.2844 31.1968C32.9501 31.1969 40.0002 24.1998 40.0002 15.5993C40.0002 6.99782 32.9501 0 24.2843 0ZM24.2843 27.9474C21.8387 27.9474 19.4699 27.2412 17.4338 25.9051C17.3653 25.8602 17.2858 25.8371 17.2058 25.8371C17.1635 25.8371 17.1212 25.8435 17.0799 25.8566L12.9204 27.1788L14.2632 23.2174C14.3066 23.0891 14.2849 22.9477 14.2049 22.8384C12.6544 20.7198 11.8347 18.2166 11.8347 15.5993C11.8347 8.78961 17.4195 3.24945 24.2842 3.24945C31.148 3.24945 36.7322 8.78961 36.7322 15.5993C36.7323 22.4081 31.1482 27.9474 24.2843 27.9474Z" fill="black"/>
</g>
<defs>
<clipPath id="clip0">
<rect width="32" height="32" fill="white" transform="translate(8)"/>
</clipPath>
</defs>
</svg>
