<svg width="216" height="55" viewBox="0 0 216 55" fill="none" xmlns="http://www.w3.org/2000/svg">
<rect x="0.5" y="0.5" width="200" height="54" rx="9.5" stroke="#949494"/>
<path d="M58.816 17.432C59.92 17.432 60.724 17.672 61.228 18.152C61.74 18.624 61.996 19.276 61.996 20.108C61.996 20.604 61.892 21.072 61.684 21.512C61.476 21.944 61.128 22.292 60.64 22.556C60.16 22.82 59.504 22.952 58.672 22.952H57.892V26H56.08V17.432H58.816ZM58.72 18.92H57.892V21.464H58.492C59.004 21.464 59.408 21.364 59.704 21.164C60.008 20.956 60.16 20.624 60.16 20.168C60.16 19.336 59.68 18.92 58.72 18.92ZM68.5472 26H63.6152V17.432H68.5472V18.92H65.4272V20.804H68.3312V22.292H65.4272V24.5H68.5472V26ZM72.826 17.432C73.994 17.432 74.854 17.644 75.406 18.068C75.966 18.492 76.246 19.136 76.246 20C76.246 20.392 76.17 20.736 76.018 21.032C75.874 21.32 75.678 21.568 75.43 21.776C75.19 21.976 74.93 22.14 74.65 22.268L77.17 26H75.154L73.114 22.712H72.142V26H70.33V17.432H72.826ZM72.694 18.92H72.142V21.236H72.73C73.33 21.236 73.758 21.136 74.014 20.936C74.278 20.736 74.41 20.44 74.41 20.048C74.41 19.64 74.27 19.352 73.99 19.184C73.718 19.008 73.286 18.92 72.694 18.92ZM83.3039 23.624C83.3039 24.384 83.0279 24.992 82.4759 25.448C81.9319 25.896 81.1559 26.12 80.1479 26.12C79.2439 26.12 78.4359 25.948 77.7239 25.604V23.912C78.1319 24.088 78.5519 24.252 78.9839 24.404C79.4239 24.548 79.8599 24.62 80.2919 24.62C80.7399 24.62 81.0559 24.536 81.2399 24.368C81.4319 24.192 81.5279 23.972 81.5279 23.708C81.5279 23.492 81.4519 23.308 81.2999 23.156C81.1559 23.004 80.9599 22.864 80.7119 22.736C80.4639 22.6 80.1799 22.456 79.8599 22.304C79.6599 22.208 79.4439 22.096 79.2119 21.968C78.9799 21.832 78.7559 21.668 78.5399 21.476C78.3319 21.276 78.1599 21.036 78.0239 20.756C77.8879 20.476 77.8199 20.14 77.8199 19.748C77.8199 18.98 78.0799 18.384 78.5999 17.96C79.1199 17.528 79.8279 17.312 80.7239 17.312C81.1719 17.312 81.5959 17.364 81.9959 17.468C82.4039 17.572 82.8279 17.72 83.2679 17.912L82.6799 19.328C82.2879 19.168 81.9359 19.044 81.6239 18.956C81.3119 18.868 80.9919 18.824 80.6639 18.824C80.3199 18.824 80.0559 18.904 79.8719 19.064C79.6879 19.224 79.5959 19.432 79.5959 19.688C79.5959 19.992 79.7319 20.232 80.0039 20.408C80.2759 20.584 80.6799 20.8 81.2159 21.056C81.6559 21.264 82.0279 21.48 82.3319 21.704C82.6439 21.928 82.8839 22.192 83.0519 22.496C83.2199 22.8 83.3039 23.176 83.3039 23.624ZM92.6373 21.704C92.6373 22.592 92.4893 23.368 92.1933 24.032C91.9053 24.688 91.4613 25.2 90.8613 25.568C90.2613 25.936 89.4933 26.12 88.5573 26.12C87.6293 26.12 86.8613 25.936 86.2533 25.568C85.6533 25.2 85.2053 24.684 84.9093 24.02C84.6213 23.356 84.4773 22.58 84.4773 21.692C84.4773 20.804 84.6213 20.032 84.9093 19.376C85.2053 18.72 85.6533 18.212 86.2533 17.852C86.8613 17.484 87.6333 17.3 88.5693 17.3C89.4973 17.3 90.2613 17.484 90.8613 17.852C91.4613 18.212 91.9053 18.724 92.1933 19.388C92.4893 20.044 92.6373 20.816 92.6373 21.704ZM86.3853 21.704C86.3853 22.6 86.5573 23.308 86.9013 23.828C87.2453 24.34 87.7973 24.596 88.5573 24.596C89.3333 24.596 89.8893 24.34 90.2253 23.828C90.5613 23.308 90.7293 22.6 90.7293 21.704C90.7293 20.8 90.5613 20.092 90.2253 19.58C89.8893 19.068 89.3373 18.812 88.5693 18.812C87.8013 18.812 87.2453 19.068 86.9013 19.58C86.5573 20.092 86.3853 20.8 86.3853 21.704ZM102.008 26H99.704L95.972 19.52H95.924C95.94 19.928 95.956 20.336 95.972 20.744C95.996 21.152 96.016 21.56 96.032 21.968V26H94.412V17.432H96.704L100.424 23.852H100.46C100.452 23.452 100.44 23.056 100.424 22.664C100.408 22.272 100.392 21.88 100.376 21.488V17.432H102.008V26ZM109.418 26L108.794 23.96H105.674L105.05 26H103.094L106.118 17.396H108.338L111.374 26H109.418ZM107.738 20.444C107.698 20.308 107.646 20.136 107.582 19.928C107.518 19.72 107.454 19.508 107.39 19.292C107.326 19.076 107.274 18.888 107.234 18.728C107.194 18.888 107.138 19.088 107.066 19.328C107.002 19.56 106.938 19.784 106.874 20C106.818 20.208 106.774 20.356 106.742 20.444L106.13 22.436H108.362L107.738 20.444ZM112.459 26V17.432H114.271V24.5H117.751V26H112.459ZM132.885 17.432L130.701 26H128.637L127.473 21.5C127.449 21.412 127.417 21.28 127.377 21.104C127.345 20.928 127.305 20.736 127.257 20.528C127.217 20.32 127.181 20.124 127.149 19.94C127.117 19.748 127.093 19.6 127.077 19.496C127.069 19.6 127.045 19.748 127.005 19.94C126.973 20.124 126.937 20.32 126.897 20.528C126.857 20.728 126.817 20.92 126.777 21.104C126.737 21.28 126.705 21.416 126.681 21.512L125.529 26H123.465L121.281 17.432H123.069L124.161 22.112C124.209 22.296 124.261 22.528 124.317 22.808C124.373 23.088 124.425 23.368 124.473 23.648C124.521 23.928 124.557 24.164 124.581 24.356C124.605 24.156 124.641 23.92 124.689 23.648C124.737 23.368 124.785 23.1 124.833 22.844C124.889 22.58 124.937 22.376 124.977 22.232L126.225 17.432H127.941L129.189 22.232C129.229 22.368 129.273 22.568 129.321 22.832C129.377 23.096 129.429 23.368 129.477 23.648C129.525 23.928 129.561 24.164 129.585 24.356C129.609 24.156 129.645 23.92 129.693 23.648C129.741 23.368 129.793 23.088 129.849 22.808C129.913 22.528 129.965 22.296 130.005 22.112L131.097 17.432H132.885ZM138.895 26H133.963V17.432H138.895V18.92H135.775V20.804H138.679V22.292H135.775V24.5H138.895V26ZM143.342 17.432C144.486 17.432 145.35 17.592 145.934 17.912C146.518 18.232 146.81 18.796 146.81 19.604C146.81 20.092 146.694 20.504 146.462 20.84C146.238 21.176 145.914 21.38 145.49 21.452V21.512C145.778 21.568 146.038 21.668 146.27 21.812C146.502 21.956 146.686 22.164 146.822 22.436C146.958 22.708 147.026 23.068 147.026 23.516C147.026 24.292 146.746 24.9 146.186 25.34C145.626 25.78 144.858 26 143.882 26H140.678V17.432H143.342ZM143.546 20.828C144.074 20.828 144.438 20.744 144.638 20.576C144.846 20.408 144.95 20.164 144.95 19.844C144.95 19.516 144.83 19.28 144.59 19.136C144.35 18.992 143.97 18.92 143.45 18.92H142.49V20.828H143.546ZM142.49 22.268V24.5H143.678C144.222 24.5 144.602 24.396 144.818 24.188C145.034 23.972 145.142 23.688 145.142 23.336C145.142 23.016 145.03 22.76 144.806 22.568C144.59 22.368 144.194 22.268 143.618 22.268H142.49ZM153.792 23.624C153.792 24.384 153.516 24.992 152.964 25.448C152.42 25.896 151.644 26.12 150.636 26.12C149.732 26.12 148.924 25.948 148.212 25.604V23.912C148.62 24.088 149.04 24.252 149.472 24.404C149.912 24.548 150.348 24.62 150.78 24.62C151.228 24.62 151.544 24.536 151.728 24.368C151.92 24.192 152.016 23.972 152.016 23.708C152.016 23.492 151.94 23.308 151.788 23.156C151.644 23.004 151.448 22.864 151.2 22.736C150.952 22.6 150.668 22.456 150.348 22.304C150.148 22.208 149.932 22.096 149.7 21.968C149.468 21.832 149.244 21.668 149.028 21.476C148.82 21.276 148.648 21.036 148.512 20.756C148.376 20.476 148.308 20.14 148.308 19.748C148.308 18.98 148.568 18.384 149.088 17.96C149.608 17.528 150.316 17.312 151.212 17.312C151.66 17.312 152.084 17.364 152.484 17.468C152.892 17.572 153.316 17.72 153.756 17.912L153.168 19.328C152.776 19.168 152.424 19.044 152.112 18.956C151.8 18.868 151.48 18.824 151.152 18.824C150.808 18.824 150.544 18.904 150.36 19.064C150.176 19.224 150.084 19.432 150.084 19.688C150.084 19.992 150.22 20.232 150.492 20.408C150.764 20.584 151.168 20.8 151.704 21.056C152.144 21.264 152.516 21.48 152.82 21.704C153.132 21.928 153.372 22.192 153.54 22.496C153.708 22.8 153.792 23.176 153.792 23.624ZM158.554 26H154.654V24.968L155.698 24.488V18.944L154.654 18.464V17.432H158.554V18.464L157.51 18.944V24.488L158.554 24.968V26ZM163.314 26H161.502V18.944H159.174V17.432H165.642V18.944H163.314V26ZM171.895 26H166.963V17.432H171.895V18.92H168.775V20.804H171.679V22.292H168.775V24.5H171.895V26Z" fill="#949494"/>
<path d="M60.467 39H56.045V31.146H60.467V32.158H57.233V34.402H60.269V35.403H57.233V37.977H60.467V39ZM64.962 32.961C65.0647 32.961 65.1747 32.9683 65.292 32.983C65.4167 32.9903 65.523 33.0013 65.611 33.016L65.49 34.105C65.2994 34.0537 65.1014 34.028 64.896 34.028C64.6027 34.028 64.324 34.1013 64.06 34.248C63.8034 34.3947 63.5944 34.6073 63.433 34.886C63.279 35.1573 63.202 35.4873 63.202 35.876V39H62.036V33.071H62.96L63.114 34.127H63.158C63.3487 33.8117 63.5944 33.5403 63.895 33.313C64.1957 33.0783 64.5514 32.961 64.962 32.961ZM69.6349 32.961C69.7376 32.961 69.8476 32.9683 69.9649 32.983C70.0896 32.9903 70.1959 33.0013 70.2839 33.016L70.1629 34.105C69.9722 34.0537 69.7742 34.028 69.5689 34.028C69.2756 34.028 68.9969 34.1013 68.7329 34.248C68.4762 34.3947 68.2672 34.6073 68.1059 34.886C67.9519 35.1573 67.8749 35.4873 67.8749 35.876V39H66.7089V33.071H67.6329L67.7869 34.127H67.8309C68.0216 33.8117 68.2672 33.5403 68.5679 33.313C68.8686 33.0783 69.2242 32.961 69.6349 32.961ZM72.5478 32.653C72.5478 32.895 72.5404 33.126 72.5258 33.346C72.5111 33.566 72.5001 33.7347 72.4928 33.852H72.5478C72.7091 33.6027 72.9328 33.3937 73.2188 33.225C73.5121 33.0563 73.8861 32.972 74.3408 32.972C75.0521 32.972 75.6241 33.2287 76.0568 33.742C76.4968 34.2553 76.7168 35.018 76.7168 36.03C76.7168 37.0493 76.4968 37.8193 76.0568 38.34C75.6168 38.8533 75.0411 39.11 74.3298 39.11C73.8678 39.11 73.4938 39.0293 73.2078 38.868C72.9291 38.6993 72.7091 38.5013 72.5478 38.274H72.4598L72.2398 39H71.3818V30.64H72.5478V32.653ZM74.0658 33.918C73.4938 33.918 73.0978 34.0867 72.8778 34.424C72.6578 34.754 72.5478 35.2637 72.5478 35.953V36.041C72.5478 36.723 72.6541 37.2473 72.8668 37.614C73.0868 37.9733 73.4938 38.153 74.0878 38.153C74.5571 38.153 74.9128 37.9697 75.1548 37.603C75.3968 37.2363 75.5178 36.7083 75.5178 36.019C75.5178 34.6183 75.0338 33.918 74.0658 33.918ZM78.797 30.816C78.973 30.816 79.127 30.8673 79.259 30.97C79.391 31.0727 79.457 31.245 79.457 31.487C79.457 31.7217 79.391 31.894 79.259 32.004C79.127 32.1067 78.973 32.158 78.797 32.158C78.6064 32.158 78.445 32.1067 78.313 32.004C78.1884 31.894 78.126 31.7217 78.126 31.487C78.126 31.245 78.1884 31.0727 78.313 30.97C78.445 30.8673 78.6064 30.816 78.797 30.816ZM79.369 33.071V39H78.203V33.071H79.369ZM84.2031 32.961C84.8924 32.961 85.4204 33.1333 85.7871 33.478C86.1538 33.8227 86.3371 34.3763 86.3371 35.139V39H85.1821V35.304C85.1821 34.38 84.7751 33.918 83.9611 33.918C83.3524 33.918 82.9344 34.0977 82.7071 34.457C82.4798 34.8163 82.3661 35.3333 82.3661 36.008V39H81.2001V33.071H82.1241L82.2891 33.863H82.3551C82.5458 33.555 82.8061 33.3277 83.1361 33.181C83.4734 33.0343 83.8291 32.961 84.2031 32.961ZM90.2628 38.164C90.4168 38.164 90.5745 38.153 90.7358 38.131C90.8972 38.1017 91.0365 38.065 91.1538 38.021V38.901C91.0218 38.9597 90.8495 39.0073 90.6368 39.044C90.4315 39.088 90.2225 39.11 90.0098 39.11C89.6872 39.11 89.3902 39.055 89.1188 38.945C88.8475 38.835 88.6312 38.6443 88.4698 38.373C88.3158 38.1017 88.2388 37.724 88.2388 37.24V33.962H87.4138V33.434L88.2828 32.994L88.6898 31.74H89.4048V33.071H91.0988V33.962H89.4048V37.218C89.4048 37.5407 89.4818 37.779 89.6358 37.933C89.7972 38.087 90.0062 38.164 90.2628 38.164ZM92.1748 38.351C92.1748 38.065 92.2444 37.8633 92.3838 37.746C92.5304 37.6287 92.7101 37.57 92.9228 37.57C93.1281 37.57 93.3041 37.6287 93.4508 37.746C93.6048 37.8633 93.6818 38.065 93.6818 38.351C93.6818 38.637 93.6048 38.8423 93.4508 38.967C93.3041 39.0917 93.1281 39.154 92.9228 39.154C92.7101 39.154 92.5304 39.0917 92.3838 38.967C92.2444 38.8423 92.1748 38.637 92.1748 38.351ZM101.926 39H100.485L96.5136 32.653H96.4696C96.4842 32.9463 96.5026 33.2837 96.5246 33.665C96.5466 34.039 96.5576 34.424 96.5576 34.82V39H95.4796V31.146H96.9096L100.87 37.46H100.903C100.895 37.306 100.884 37.1117 100.87 36.877C100.862 36.6423 100.855 36.393 100.848 36.129C100.84 35.8577 100.833 35.6047 100.826 35.37V31.146H101.926V39ZM108.442 39H104.02V31.146H108.442V32.158H105.208V34.402H108.244V35.403H105.208V37.977H108.442V39ZM112.783 39H111.595V32.169H109.241V31.146H115.137V32.169H112.783V39Z" fill="#949494"/>
<path d="M23.507 27.4829V33.7415H17V16H41V27.4829H23.507ZM23.507 40V33.7415H41V40H23.507Z" fill="#949494"/>
</svg>
