<svg width="216" height="55" viewBox="0 0 216 55" fill="none" xmlns="http://www.w3.org/2000/svg">
<rect x="0.5" y="0.5" width="200" height="54" rx="9.5" stroke="#949494"/>
<path d="M57.868 26H56.08V17.432H60.988V18.92H57.868V21.128H60.772V22.616H57.868V26ZM65.8699 26H61.9699V24.968L63.0139 24.488V18.944L61.9699 18.464V17.432H65.8699V18.464L64.8259 18.944V24.488L65.8699 24.968V26ZM70.582 21.188H73.978V25.628C73.53 25.78 73.062 25.9 72.574 25.988C72.094 26.076 71.546 26.12 70.93 26.12C69.65 26.12 68.666 25.744 67.978 24.992C67.29 24.24 66.946 23.144 66.946 21.704C66.946 20.808 67.118 20.032 67.462 19.376C67.814 18.72 68.322 18.212 68.986 17.852C69.65 17.492 70.462 17.312 71.422 17.312C71.878 17.312 72.326 17.36 72.766 17.456C73.206 17.552 73.606 17.68 73.966 17.84L73.366 19.292C73.102 19.156 72.802 19.044 72.466 18.956C72.13 18.868 71.778 18.824 71.41 18.824C70.882 18.824 70.422 18.944 70.03 19.184C69.646 19.424 69.346 19.764 69.13 20.204C68.922 20.636 68.818 21.148 68.818 21.74C68.818 22.3 68.894 22.796 69.046 23.228C69.198 23.66 69.438 24 69.766 24.248C70.094 24.488 70.522 24.608 71.05 24.608C71.306 24.608 71.522 24.596 71.698 24.572C71.882 24.548 72.05 24.52 72.202 24.488V22.7H70.582V21.188ZM79.6376 26L77.5736 19.28H77.5256C77.5336 19.44 77.5456 19.68 77.5616 20C77.5776 20.32 77.5936 20.664 77.6096 21.032C77.6256 21.392 77.6336 21.72 77.6336 22.016V26H76.0136V17.432H78.4856L80.5136 23.984H80.5496L82.6976 17.432H85.1696V26H83.4776V21.944C83.4776 21.672 83.4816 21.36 83.4896 21.008C83.5056 20.656 83.5176 20.324 83.5256 20.012C83.5416 19.692 83.5536 19.452 83.5616 19.292H83.5136L81.3056 26H79.6376ZM92.5779 26L91.9539 23.96H88.8339L88.2099 26H86.2539L89.2779 17.396H91.4979L94.5339 26H92.5779ZM90.8979 20.444C90.8579 20.308 90.8059 20.136 90.7419 19.928C90.6779 19.72 90.6139 19.508 90.5499 19.292C90.4859 19.076 90.4339 18.888 90.3939 18.728C90.3539 18.888 90.2979 19.088 90.2259 19.328C90.1619 19.56 90.0979 19.784 90.0339 20C89.9779 20.208 89.9339 20.356 89.9019 20.444L89.2899 22.436H91.5219L90.8979 20.444ZM105.756 26H103.944V22.304H100.548V26H98.7363V17.432H100.548V20.792H103.944V17.432H105.756V26ZM113.156 26L112.532 23.96H109.412L108.788 26H106.832L109.856 17.396H112.076L115.112 26H113.156ZM111.476 20.444C111.436 20.308 111.384 20.136 111.32 19.928C111.256 19.72 111.192 19.508 111.128 19.292C111.064 19.076 111.012 18.888 110.972 18.728C110.932 18.888 110.876 19.088 110.804 19.328C110.74 19.56 110.676 19.784 110.612 20C110.556 20.208 110.512 20.356 110.48 20.444L109.868 22.436H112.1L111.476 20.444ZM116.197 26V17.432H118.009V24.5H121.489V26H116.197ZM122.982 26V17.432H124.794V24.5H128.274V26H122.982Z" fill="#949494"/>
<path d="M61.4 39L60.64 36.94H57.88L57.12 39H56L58.71 31.83H59.83L62.53 39H61.4ZM59.62 33.99C59.6 33.9167 59.5633 33.8067 59.51 33.66C59.4633 33.5133 59.4167 33.36 59.37 33.2C59.3233 33.04 59.2867 32.91 59.26 32.81C59.2067 33.0167 59.1467 33.2367 59.08 33.47C59.0133 33.7033 58.96 33.8767 58.92 33.99L58.2 36H60.34L59.62 33.99ZM64.433 39H63.373V31.4H64.433V39ZM67.1576 39H66.0976V31.4H67.1576V39ZM76.1698 36.3C76.1698 37.1933 75.9398 37.8833 75.4798 38.37C75.0198 38.8567 74.3998 39.1 73.6198 39.1C73.1332 39.1 72.6998 38.99 72.3198 38.77C71.9465 38.55 71.6498 38.2333 71.4298 37.82C71.2165 37.4 71.1098 36.8933 71.1098 36.3C71.1098 35.4067 71.3365 34.72 71.7898 34.24C72.2432 33.7533 72.8632 33.51 73.6498 33.51C74.1432 33.51 74.5765 33.62 74.9498 33.84C75.3298 34.0533 75.6265 34.3667 75.8398 34.78C76.0598 35.1933 76.1698 35.7 76.1698 36.3ZM72.1998 36.3C72.1998 36.9067 72.3132 37.38 72.5398 37.72C72.7732 38.06 73.1398 38.23 73.6398 38.23C74.1398 38.23 74.5032 38.06 74.7298 37.72C74.9632 37.38 75.0798 36.9067 75.0798 36.3C75.0798 35.6867 74.9632 35.2167 74.7298 34.89C74.4965 34.5567 74.1298 34.39 73.6298 34.39C73.1298 34.39 72.7665 34.5567 72.5398 34.89C72.3132 35.2167 72.1998 35.6867 72.1998 36.3ZM80.1436 34.42H78.8136V39H77.7536V34.42H76.8436V33.92L77.7536 33.59V33.25C77.7536 32.5633 77.9103 32.0767 78.2236 31.79C78.5436 31.4967 78.9869 31.35 79.5536 31.35C79.7869 31.35 80.0003 31.37 80.1936 31.41C80.3869 31.45 80.5503 31.4933 80.6836 31.54L80.4136 32.35C80.3003 32.3167 80.1736 32.2867 80.0336 32.26C79.9003 32.2267 79.7569 32.21 79.6036 32.21C79.0769 32.21 78.8136 32.56 78.8136 33.26V33.61H80.1436V34.42ZM89.7255 33.51C90.3321 33.51 90.7888 33.6667 91.0955 33.98C91.4021 34.2933 91.5555 34.7967 91.5555 35.49V39H90.4955V35.63C90.4955 34.7967 90.1588 34.38 89.4855 34.38C89.0055 34.38 88.6621 34.53 88.4555 34.83C88.2488 35.1233 88.1455 35.5467 88.1455 36.1V39H87.0955V35.63C87.0955 34.7967 86.7555 34.38 86.0755 34.38C85.5688 34.38 85.2188 34.5433 85.0255 34.87C84.8388 35.1967 84.7455 35.6667 84.7455 36.28V39H83.6855V33.61H84.5255L84.6755 34.33H84.7355C84.8955 34.05 85.1188 33.8433 85.4055 33.71C85.6921 33.5767 85.9955 33.51 86.3155 33.51C87.1488 33.51 87.6955 33.8 87.9555 34.38H88.0355C88.2088 34.08 88.4488 33.86 88.7555 33.72C89.0621 33.58 89.3855 33.51 89.7255 33.51ZM92.3577 33.61H93.4977L94.6177 36.67C94.7043 36.9033 94.7777 37.13 94.8377 37.35C94.9043 37.5633 94.9543 37.7733 94.9877 37.98H95.0277C95.061 37.8067 95.111 37.6033 95.1777 37.37C95.251 37.1367 95.331 36.9 95.4177 36.66L96.4777 33.61H97.6177L95.3077 39.73C95.1143 40.25 94.8543 40.6567 94.5277 40.95C94.2077 41.25 93.7877 41.4 93.2677 41.4C93.101 41.4 92.9577 41.39 92.8377 41.37C92.7177 41.3567 92.6143 41.34 92.5277 41.32V40.48C92.5943 40.4933 92.681 40.5067 92.7877 40.52C92.8943 40.5333 93.0043 40.54 93.1177 40.54C93.4243 40.54 93.671 40.45 93.8577 40.27C94.0443 40.0967 94.191 39.8667 94.2977 39.58L94.5177 39L92.3577 33.61ZM106.709 36.48C106.709 36.9733 106.605 37.42 106.399 37.82C106.192 38.2133 105.879 38.5267 105.459 38.76C105.045 38.9867 104.519 39.1 103.879 39.1C102.972 39.1 102.282 38.86 101.809 38.38C101.342 37.8933 101.109 37.2533 101.109 36.46V31.86H102.189V36.41C102.189 37.59 102.769 38.18 103.929 38.18C104.529 38.18 104.962 38.02 105.229 37.7C105.502 37.38 105.639 36.9467 105.639 36.4V31.86H106.709V36.48ZM110.752 39H107.982V38.38L108.832 38.13V32.74L107.982 32.48V31.86H110.752V32.48L109.912 32.74V38.13L110.752 38.38V39ZM116.654 33.51C117.328 33.51 117.831 33.66 118.164 33.96C118.504 34.2533 118.674 34.7167 118.674 35.35V39H117.924L117.714 38.25H117.674C117.441 38.5433 117.194 38.76 116.934 38.9C116.681 39.0333 116.328 39.1 115.874 39.1C115.388 39.1 114.984 38.97 114.664 38.71C114.344 38.4433 114.184 38.03 114.184 37.47C114.184 36.9233 114.391 36.5067 114.804 36.22C115.218 35.9333 115.854 35.7767 116.714 35.75L117.634 35.72V35.42C117.634 35.0267 117.544 34.75 117.364 34.59C117.184 34.4233 116.931 34.34 116.604 34.34C116.331 34.34 116.068 34.38 115.814 34.46C115.561 34.54 115.318 34.6367 115.084 34.75L114.744 33.98C114.998 33.8467 115.288 33.7367 115.614 33.65C115.948 33.5567 116.294 33.51 116.654 33.51ZM116.904 36.43C116.291 36.4567 115.864 36.56 115.624 36.74C115.391 36.9133 115.274 37.16 115.274 37.48C115.274 37.76 115.358 37.9633 115.524 38.09C115.691 38.2167 115.908 38.28 116.174 38.28C116.588 38.28 116.931 38.1633 117.204 37.93C117.484 37.6967 117.624 37.3467 117.624 36.88V36.41L116.904 36.43ZM122.967 33.51C123.06 33.51 123.16 33.5167 123.267 33.53C123.38 33.5367 123.477 33.5467 123.557 33.56L123.447 34.55C123.273 34.5033 123.093 34.48 122.907 34.48C122.64 34.48 122.387 34.5467 122.147 34.68C121.913 34.8133 121.723 35.0067 121.577 35.26C121.437 35.5067 121.367 35.8067 121.367 36.16V39H120.307V33.61H121.147L121.287 34.57H121.327C121.5 34.2833 121.723 34.0367 121.997 33.83C122.27 33.6167 122.593 33.51 122.967 33.51ZM126.495 38.24C126.635 38.24 126.778 38.23 126.925 38.21C127.071 38.1833 127.198 38.15 127.305 38.11V38.91C127.185 38.9633 127.028 39.0067 126.835 39.04C126.648 39.08 126.458 39.1 126.265 39.1C125.971 39.1 125.701 39.05 125.455 38.95C125.208 38.85 125.011 38.6767 124.865 38.43C124.725 38.1833 124.655 37.84 124.655 37.4V34.42H123.905V33.94L124.695 33.54L125.065 32.4H125.715V33.61H127.255V34.42H125.715V37.38C125.715 37.6733 125.785 37.89 125.925 38.03C126.071 38.17 126.261 38.24 126.495 38.24ZM132.023 36.3C131.969 36.1267 131.913 35.9267 131.853 35.7C131.799 35.4733 131.749 35.26 131.703 35.06C131.656 34.8533 131.619 34.6967 131.593 34.59H131.553C131.533 34.6967 131.499 34.8533 131.453 35.06C131.406 35.2667 131.353 35.4833 131.293 35.71C131.239 35.9367 131.186 36.1367 131.133 36.31L130.333 38.99H129.153L127.663 33.6H128.743L129.443 36.33C129.516 36.61 129.583 36.91 129.643 37.23C129.709 37.5433 129.756 37.7967 129.783 37.99H129.823C129.843 37.8767 129.869 37.7267 129.903 37.54C129.943 37.3533 129.983 37.1667 130.023 36.98C130.069 36.7867 130.113 36.63 130.153 36.51L131.013 33.6H132.173L133.013 36.51C133.053 36.6433 133.096 36.8033 133.143 36.99C133.189 37.17 133.229 37.35 133.263 37.53C133.303 37.7033 133.329 37.8533 133.343 37.98H133.383C133.396 37.8733 133.419 37.7267 133.453 37.54C133.486 37.3533 133.526 37.1533 133.573 36.94C133.626 36.7267 133.676 36.5233 133.723 36.33L134.443 33.6H135.513L134.003 38.99H132.793L132.023 36.3ZM141.199 36.3C141.199 37.1933 140.969 37.8833 140.509 38.37C140.049 38.8567 139.429 39.1 138.649 39.1C138.162 39.1 137.729 38.99 137.349 38.77C136.976 38.55 136.679 38.2333 136.459 37.82C136.246 37.4 136.139 36.8933 136.139 36.3C136.139 35.4067 136.366 34.72 136.819 34.24C137.272 33.7533 137.892 33.51 138.679 33.51C139.172 33.51 139.606 33.62 139.979 33.84C140.359 34.0533 140.656 34.3667 140.869 34.78C141.089 35.1933 141.199 35.7 141.199 36.3ZM137.229 36.3C137.229 36.9067 137.342 37.38 137.569 37.72C137.802 38.06 138.169 38.23 138.669 38.23C139.169 38.23 139.532 38.06 139.759 37.72C139.992 37.38 140.109 36.9067 140.109 36.3C140.109 35.6867 139.992 35.2167 139.759 34.89C139.526 34.5567 139.159 34.39 138.659 34.39C138.159 34.39 137.796 34.5567 137.569 34.89C137.342 35.2167 137.229 35.6867 137.229 36.3ZM145.203 33.51C145.296 33.51 145.396 33.5167 145.503 33.53C145.616 33.5367 145.713 33.5467 145.793 33.56L145.683 34.55C145.51 34.5033 145.33 34.48 145.143 34.48C144.876 34.48 144.623 34.5467 144.383 34.68C144.15 34.8133 143.96 35.0067 143.813 35.26C143.673 35.5067 143.603 35.8067 143.603 36.16V39H142.543V33.61H143.383L143.523 34.57H143.563C143.736 34.2833 143.96 34.0367 144.233 33.83C144.506 33.6167 144.83 33.51 145.203 33.51ZM147.841 35.2C147.841 35.3333 147.834 35.4933 147.821 35.68C147.808 35.8667 147.798 36.0333 147.791 36.18H147.821C147.894 36.08 147.994 35.95 148.121 35.79C148.254 35.6233 148.371 35.4867 148.471 35.38L150.121 33.61H151.351L149.181 35.92L151.491 39H150.241L148.461 36.59L147.841 37.11V39H146.791V31.4H147.841V35.2ZM155.957 37.48C155.957 38.0067 155.764 38.41 155.377 38.69C154.99 38.9633 154.454 39.1 153.767 39.1C153.387 39.1 153.06 39.07 152.787 39.01C152.52 38.9567 152.274 38.8767 152.047 38.77V37.84C152.28 37.9533 152.554 38.0567 152.867 38.15C153.187 38.2367 153.497 38.28 153.797 38.28C154.197 38.28 154.484 38.2167 154.657 38.09C154.837 37.9633 154.927 37.7933 154.927 37.58C154.927 37.46 154.894 37.3533 154.827 37.26C154.76 37.16 154.634 37.06 154.447 36.96C154.267 36.8533 154 36.7333 153.647 36.6C153.3 36.46 153.007 36.3233 152.767 36.19C152.534 36.05 152.354 35.8867 152.227 35.7C152.1 35.5067 152.037 35.26 152.037 34.96C152.037 34.4933 152.224 34.1367 152.597 33.89C152.977 33.6367 153.477 33.51 154.097 33.51C154.424 33.51 154.73 33.5433 155.017 33.61C155.31 33.6767 155.594 33.77 155.867 33.89L155.517 34.7C155.284 34.6 155.044 34.5167 154.797 34.45C154.55 34.3767 154.3 34.34 154.047 34.34C153.727 34.34 153.484 34.39 153.317 34.49C153.15 34.59 153.067 34.73 153.067 34.91C153.067 35.0367 153.107 35.1467 153.187 35.24C153.267 35.3333 153.4 35.4267 153.587 35.52C153.78 35.6133 154.044 35.7267 154.377 35.86C154.71 35.9867 154.994 36.1167 155.227 36.25C155.467 36.3833 155.647 36.5467 155.767 36.74C155.894 36.9333 155.957 37.18 155.957 37.48Z" fill="#949494"/>
<path d="M42.0837 18.0233V23.2045H19.0484V18.0233H17.3208V38.748H19.0484V24.9315H42.0837V38.748H43.8114V18.0233H42.0837Z" fill="#949494"/>
<path d="M42.0836 16.2963H19.0483V18.0233H42.0836V16.2963Z" fill="#949494"/>
<path d="M42.0836 38.748H19.0483V40.475H42.0836V38.748Z" fill="#949494"/>
<path d="M40.3561 19.7504H38.6284V21.4775H40.3561V19.7504Z" fill="#949494"/>
<path d="M36.9007 19.7504H35.1731V21.4775H36.9007V19.7504Z" fill="#949494"/>
<path d="M39.7803 27.2343H21.3521V28.9613H39.7803V27.2343Z" fill="#949494"/>
<path d="M30.5662 31.2641H21.3521V32.9911H30.5662V31.2641Z" fill="#949494"/>
</svg>
