<svg width="216" height="55" viewBox="0 0 216 55" fill="none" xmlns="http://www.w3.org/2000/svg">
<rect x="0.5" y="0.5" width="200" height="54" rx="9.5" stroke="#949494"/>
<path d="M59.716 17.824C59.02 17.824 58.488 18.084 58.12 18.604C57.752 19.124 57.568 19.836 57.568 20.74C57.568 21.652 57.736 22.36 58.072 22.864C58.416 23.36 58.964 23.608 59.716 23.608C60.068 23.608 60.416 23.568 60.76 23.488C61.112 23.408 61.492 23.296 61.9 23.152V24.676C61.524 24.828 61.152 24.94 60.784 25.012C60.416 25.084 60.004 25.12 59.548 25.12C58.668 25.12 57.94 24.94 57.364 24.58C56.796 24.212 56.376 23.7 56.104 23.044C55.832 22.38 55.696 21.608 55.696 20.728C55.696 19.864 55.852 19.1 56.164 18.436C56.476 17.772 56.928 17.252 57.52 16.876C58.12 16.5 58.852 16.312 59.716 16.312C60.14 16.312 60.564 16.368 60.988 16.48C61.42 16.584 61.832 16.728 62.224 16.912L61.636 18.388C61.316 18.236 60.992 18.104 60.664 17.992C60.344 17.88 60.028 17.824 59.716 17.824ZM70.4406 16.432L67.5246 25H65.5446L62.6406 16.432H64.4766L66.0846 21.532C66.1166 21.62 66.1606 21.784 66.2166 22.024C66.2806 22.256 66.3446 22.504 66.4086 22.768C66.4726 23.024 66.5166 23.24 66.5406 23.416C66.5646 23.24 66.6046 23.024 66.6606 22.768C66.7246 22.504 66.7886 22.256 66.8526 22.024C66.9166 21.784 66.9606 21.62 66.9846 21.532L68.6046 16.432H70.4406ZM78.4585 16.432L75.2665 25H73.6465L76.8385 16.432H78.4585ZM85.2127 16.432C86.3807 16.432 87.2407 16.644 87.7927 17.068C88.3527 17.492 88.6327 18.136 88.6327 19C88.6327 19.392 88.5567 19.736 88.4047 20.032C88.2607 20.32 88.0647 20.568 87.8167 20.776C87.5767 20.976 87.3167 21.14 87.0367 21.268L89.5567 25H87.5407L85.5007 21.712H84.5287V25H82.7167V16.432H85.2127ZM85.0807 17.92H84.5287V20.236H85.1167C85.7167 20.236 86.1447 20.136 86.4007 19.936C86.6647 19.736 86.7967 19.44 86.7967 19.048C86.7967 18.64 86.6567 18.352 86.3767 18.184C86.1047 18.008 85.6727 17.92 85.0807 17.92ZM95.5706 25H90.6386V16.432H95.5706V17.92H92.4506V19.804H95.3546V21.292H92.4506V23.5H95.5706V25ZM102.405 22.624C102.405 23.384 102.129 23.992 101.577 24.448C101.033 24.896 100.257 25.12 99.2494 25.12C98.3454 25.12 97.5374 24.948 96.8254 24.604V22.912C97.2334 23.088 97.6534 23.252 98.0854 23.404C98.5254 23.548 98.9614 23.62 99.3934 23.62C99.8414 23.62 100.157 23.536 100.341 23.368C100.533 23.192 100.629 22.972 100.629 22.708C100.629 22.492 100.553 22.308 100.401 22.156C100.257 22.004 100.061 21.864 99.8134 21.736C99.5654 21.6 99.2814 21.456 98.9614 21.304C98.7614 21.208 98.5454 21.096 98.3134 20.968C98.0814 20.832 97.8574 20.668 97.6414 20.476C97.4334 20.276 97.2614 20.036 97.1254 19.756C96.9894 19.476 96.9214 19.14 96.9214 18.748C96.9214 17.98 97.1814 17.384 97.7014 16.96C98.2214 16.528 98.9294 16.312 99.8254 16.312C100.273 16.312 100.697 16.364 101.097 16.468C101.505 16.572 101.929 16.72 102.369 16.912L101.781 18.328C101.389 18.168 101.037 18.044 100.725 17.956C100.413 17.868 100.093 17.824 99.7654 17.824C99.4214 17.824 99.1574 17.904 98.9734 18.064C98.7894 18.224 98.6974 18.432 98.6974 18.688C98.6974 18.992 98.8334 19.232 99.1054 19.408C99.3774 19.584 99.7814 19.8 100.317 20.056C100.757 20.264 101.129 20.48 101.433 20.704C101.745 20.928 101.985 21.192 102.153 21.496C102.321 21.8 102.405 22.176 102.405 22.624ZM110.935 21.976C110.935 22.568 110.803 23.104 110.539 23.584C110.283 24.056 109.891 24.432 109.363 24.712C108.843 24.984 108.183 25.12 107.383 25.12C106.247 25.12 105.383 24.832 104.791 24.256C104.199 23.672 103.903 22.904 103.903 21.952V16.432H105.715V21.676C105.715 22.38 105.859 22.876 106.147 23.164C106.435 23.452 106.863 23.596 107.431 23.596C108.023 23.596 108.451 23.44 108.715 23.128C108.987 22.816 109.123 22.328 109.123 21.664V16.432H110.935V21.976ZM116.657 25L114.593 18.28H114.545C114.553 18.44 114.565 18.68 114.581 19C114.597 19.32 114.613 19.664 114.629 20.032C114.645 20.392 114.653 20.72 114.653 21.016V25H113.033V16.432H115.505L117.533 22.984H117.569L119.717 16.432H122.189V25H120.497V20.944C120.497 20.672 120.501 20.36 120.509 20.008C120.525 19.656 120.537 19.324 120.545 19.012C120.561 18.692 120.573 18.452 120.581 18.292H120.533L118.325 25H116.657ZM129.285 25H124.353V16.432H129.285V17.92H126.165V19.804H129.069V21.292H126.165V23.5H129.285V25Z" fill="#949494"/>
<path d="M59.35 38H58.27V31.79H56.13V30.86H61.49V31.79H59.35V38ZM63.754 32.51C64.4273 32.51 64.9307 32.66 65.264 32.96C65.604 33.2533 65.774 33.7167 65.774 34.35V38H65.024L64.814 37.25H64.774C64.5407 37.5433 64.294 37.76 64.034 37.9C63.7807 38.0333 63.4273 38.1 62.974 38.1C62.4873 38.1 62.084 37.97 61.764 37.71C61.444 37.4433 61.284 37.03 61.284 36.47C61.284 35.9233 61.4907 35.5067 61.904 35.22C62.3173 34.9333 62.954 34.7767 63.814 34.75L64.734 34.72V34.42C64.734 34.0267 64.644 33.75 64.464 33.59C64.284 33.4233 64.0307 33.34 63.704 33.34C63.4307 33.34 63.1673 33.38 62.914 33.46C62.6607 33.54 62.4173 33.6367 62.184 33.75L61.844 32.98C62.0973 32.8467 62.3873 32.7367 62.714 32.65C63.0473 32.5567 63.394 32.51 63.754 32.51ZM64.004 35.43C63.3907 35.4567 62.964 35.56 62.724 35.74C62.4907 35.9133 62.374 36.16 62.374 36.48C62.374 36.76 62.4573 36.9633 62.624 37.09C62.7907 37.2167 63.0073 37.28 63.274 37.28C63.6873 37.28 64.0307 37.1633 64.304 36.93C64.584 36.6967 64.724 36.3467 64.724 35.88V35.41L64.004 35.43ZM68.4562 34.2C68.4562 34.3333 68.4495 34.4933 68.4362 34.68C68.4228 34.8667 68.4128 35.0333 68.4062 35.18H68.4362C68.5095 35.08 68.6095 34.95 68.7362 34.79C68.8695 34.6233 68.9862 34.4867 69.0862 34.38L70.7362 32.61H71.9662L69.7962 34.92L72.1062 38H70.8562L69.0762 35.59L68.4562 36.11V38H67.4062V30.4H68.4562V34.2ZM75.1121 32.51C75.8188 32.51 76.3754 32.73 76.7821 33.17C77.1888 33.6033 77.3921 34.1967 77.3921 34.95V35.53H73.7721C73.7854 36.0833 73.9288 36.5067 74.2021 36.8C74.4821 37.0933 74.8721 37.24 75.3721 37.24C75.7188 37.24 76.0254 37.21 76.2921 37.15C76.5654 37.0833 76.8454 36.9867 77.1321 36.86V37.74C76.8588 37.86 76.5854 37.95 76.3121 38.01C76.0388 38.07 75.7121 38.1 75.3321 38.1C74.8054 38.1 74.3421 37.9967 73.9421 37.79C73.5488 37.5833 73.2388 37.2767 73.0121 36.87C72.7921 36.4567 72.6821 35.95 72.6821 35.35C72.6821 34.7433 72.7821 34.23 72.9821 33.81C73.1888 33.39 73.4721 33.07 73.8321 32.85C74.1988 32.6233 74.6254 32.51 75.1121 32.51ZM75.1121 33.33C74.7321 33.33 74.4254 33.4533 74.1921 33.7C73.9654 33.9467 73.8321 34.2967 73.7921 34.75H76.3321C76.3254 34.33 76.2221 33.99 76.0221 33.73C75.8288 33.4633 75.5254 33.33 75.1121 33.33ZM87.3524 32.51C87.9591 32.51 88.4158 32.6667 88.7224 32.98C89.0291 33.2933 89.1824 33.7967 89.1824 34.49V38H88.1224V34.63C88.1224 33.7967 87.7858 33.38 87.1124 33.38C86.6324 33.38 86.2891 33.53 86.0824 33.83C85.8758 34.1233 85.7724 34.5467 85.7724 35.1V38H84.7224V34.63C84.7224 33.7967 84.3824 33.38 83.7024 33.38C83.1958 33.38 82.8458 33.5433 82.6524 33.87C82.4658 34.1967 82.3724 34.6667 82.3724 35.28V38H81.3124V32.61H82.1524L82.3024 33.33H82.3624C82.5224 33.05 82.7458 32.8433 83.0324 32.71C83.3191 32.5767 83.6224 32.51 83.9424 32.51C84.7758 32.51 85.3224 32.8 85.5824 33.38H85.6624C85.8358 33.08 86.0758 32.86 86.3824 32.72C86.6891 32.58 87.0124 32.51 87.3524 32.51ZM89.9846 32.61H91.1246L92.2446 35.67C92.3313 35.9033 92.4046 36.13 92.4646 36.35C92.5313 36.5633 92.5813 36.7733 92.6146 36.98H92.6546C92.6879 36.8067 92.7379 36.6033 92.8046 36.37C92.8779 36.1367 92.9579 35.9 93.0446 35.66L94.1046 32.61H95.2446L92.9346 38.73C92.7413 39.25 92.4813 39.6567 92.1546 39.95C91.8346 40.25 91.4146 40.4 90.8946 40.4C90.7279 40.4 90.5846 40.39 90.4646 40.37C90.3446 40.3567 90.2413 40.34 90.1546 40.32V39.48C90.2213 39.4933 90.3079 39.5067 90.4146 39.52C90.5213 39.5333 90.6313 39.54 90.7446 39.54C91.0513 39.54 91.2979 39.45 91.4846 39.27C91.6713 39.0967 91.8179 38.8667 91.9246 38.58L92.1446 38L89.9846 32.61ZM101.846 31.69C101.132 31.69 100.576 31.9367 100.176 32.43C99.7757 32.9167 99.5757 33.5867 99.5757 34.44C99.5757 35.2867 99.7624 35.9533 100.136 36.44C100.509 36.9267 101.076 37.17 101.836 37.17C102.142 37.17 102.436 37.1433 102.716 37.09C103.002 37.03 103.292 36.9533 103.586 36.86V37.79C103.306 37.8967 103.019 37.9733 102.726 38.02C102.439 38.0733 102.099 38.1 101.706 38.1C100.972 38.1 100.366 37.95 99.8857 37.65C99.4057 37.3433 99.0457 36.9167 98.8057 36.37C98.5657 35.8167 98.4457 35.17 98.4457 34.43C98.4457 33.71 98.5757 33.0733 98.8357 32.52C99.1024 31.9667 99.489 31.5367 99.9957 31.23C100.502 30.9167 101.122 30.76 101.856 30.76C102.216 30.76 102.566 30.8 102.906 30.88C103.252 30.9533 103.569 31.06 103.856 31.2L103.456 32.1C103.222 31.9933 102.969 31.9 102.696 31.82C102.429 31.7333 102.146 31.69 101.846 31.69ZM110.324 30.86L107.804 38H106.684L104.174 30.86H105.284L106.814 35.34C106.9 35.58 106.984 35.8433 107.064 36.13C107.144 36.4167 107.204 36.6767 107.244 36.91C107.284 36.6767 107.344 36.4167 107.424 36.13C107.504 35.8433 107.587 35.5767 107.674 35.33L109.204 30.86H110.324ZM113.684 31.17C113.684 30.95 113.74 30.7933 113.854 30.7C113.974 30.6067 114.12 30.56 114.294 30.56C114.454 30.56 114.594 30.6067 114.714 30.7C114.834 30.7933 114.894 30.95 114.894 31.17C114.894 31.3833 114.834 31.54 114.714 31.64C114.594 31.7333 114.454 31.78 114.294 31.78C114.12 31.78 113.974 31.7333 113.854 31.64C113.74 31.54 113.684 31.3833 113.684 31.17ZM113.184 40.4C113.01 40.4 112.854 40.3867 112.714 40.36C112.567 40.34 112.444 40.3133 112.344 40.28V39.43C112.45 39.4633 112.557 39.4867 112.664 39.5C112.77 39.52 112.89 39.53 113.024 39.53C113.23 39.53 113.404 39.47 113.544 39.35C113.684 39.2367 113.754 39.0167 113.754 38.69V32.61H114.814V38.74C114.814 39.24 114.684 39.64 114.424 39.94C114.17 40.2467 113.757 40.4 113.184 40.4ZM121.118 32.61V38H120.268L120.118 37.29H120.068C119.895 37.57 119.655 37.7767 119.348 37.91C119.042 38.0367 118.718 38.1 118.378 38.1C117.745 38.1 117.262 37.9433 116.928 37.63C116.595 37.3167 116.428 36.82 116.428 36.14V32.61H117.498V35.98C117.498 36.8133 117.862 37.23 118.588 37.23C119.142 37.23 119.525 37.0667 119.738 36.74C119.952 36.4133 120.058 35.9467 120.058 35.34V32.61H121.118ZM126.357 36.48C126.357 37.0067 126.164 37.41 125.777 37.69C125.391 37.9633 124.854 38.1 124.167 38.1C123.787 38.1 123.461 38.07 123.187 38.01C122.921 37.9567 122.674 37.8767 122.447 37.77V36.84C122.681 36.9533 122.954 37.0567 123.267 37.15C123.587 37.2367 123.897 37.28 124.197 37.28C124.597 37.28 124.884 37.2167 125.057 37.09C125.237 36.9633 125.327 36.7933 125.327 36.58C125.327 36.46 125.294 36.3533 125.227 36.26C125.161 36.16 125.034 36.06 124.847 35.96C124.667 35.8533 124.401 35.7333 124.047 35.6C123.701 35.46 123.407 35.3233 123.167 35.19C122.934 35.05 122.754 34.8867 122.627 34.7C122.501 34.5067 122.437 34.26 122.437 33.96C122.437 33.4933 122.624 33.1367 122.997 32.89C123.377 32.6367 123.877 32.51 124.497 32.51C124.824 32.51 125.131 32.5433 125.417 32.61C125.711 32.6767 125.994 32.77 126.267 32.89L125.917 33.7C125.684 33.6 125.444 33.5167 125.197 33.45C124.951 33.3767 124.701 33.34 124.447 33.34C124.127 33.34 123.884 33.39 123.717 33.49C123.551 33.59 123.467 33.73 123.467 33.91C123.467 34.0367 123.507 34.1467 123.587 34.24C123.667 34.3333 123.801 34.4267 123.987 34.52C124.181 34.6133 124.444 34.7267 124.777 34.86C125.111 34.9867 125.394 35.1167 125.627 35.25C125.867 35.3833 126.047 35.5467 126.167 35.74C126.294 35.9333 126.357 36.18 126.357 36.48ZM129.561 37.24C129.701 37.24 129.844 37.23 129.991 37.21C130.138 37.1833 130.264 37.15 130.371 37.11V37.91C130.251 37.9633 130.094 38.0067 129.901 38.04C129.714 38.08 129.524 38.1 129.331 38.1C129.038 38.1 128.768 38.05 128.521 37.95C128.274 37.85 128.078 37.6767 127.931 37.43C127.791 37.1833 127.721 36.84 127.721 36.4V33.42H126.971V32.94L127.761 32.54L128.131 31.4H128.781V32.61H130.321V33.42H128.781V36.38C128.781 36.6733 128.851 36.89 128.991 37.03C129.138 37.17 129.328 37.24 129.561 37.24ZM136.707 32.51C136.8 32.51 136.9 32.5167 137.007 32.53C137.12 32.5367 137.217 32.5467 137.297 32.56L137.187 33.55C137.013 33.5033 136.833 33.48 136.647 33.48C136.38 33.48 136.127 33.5467 135.887 33.68C135.653 33.8133 135.463 34.0067 135.317 34.26C135.177 34.5067 135.107 34.8067 135.107 35.16V38H134.047V32.61H134.887L135.027 33.57H135.067C135.24 33.2833 135.463 33.0367 135.737 32.83C136.01 32.6167 136.333 32.51 136.707 32.51ZM138.835 30.56C138.995 30.56 139.135 30.6067 139.255 30.7C139.375 30.7933 139.435 30.95 139.435 31.17C139.435 31.3833 139.375 31.54 139.255 31.64C139.135 31.7333 138.995 31.78 138.835 31.78C138.662 31.78 138.515 31.7333 138.395 31.64C138.282 31.54 138.225 31.3833 138.225 31.17C138.225 30.95 138.282 30.7933 138.395 30.7C138.515 30.6067 138.662 30.56 138.835 30.56ZM139.355 32.61V38H138.295V32.61H139.355ZM142.879 32.51C143.593 32.51 144.143 32.78 144.529 33.32H144.579L144.699 32.61H145.559V38.07C145.559 38.8367 145.353 39.4167 144.939 39.81C144.533 40.2033 143.909 40.4 143.069 40.4C142.676 40.4 142.316 40.3733 141.989 40.32C141.669 40.2667 141.373 40.1833 141.099 40.07V39.14C141.673 39.42 142.349 39.56 143.129 39.56C143.569 39.56 143.909 39.4333 144.149 39.18C144.389 38.9333 144.509 38.5833 144.509 38.13V37.95C144.509 37.8633 144.513 37.75 144.519 37.61C144.526 37.47 144.533 37.3633 144.539 37.29H144.499C144.319 37.57 144.093 37.7767 143.819 37.91C143.546 38.0367 143.233 38.1 142.879 38.1C142.199 38.1 141.666 37.8567 141.279 37.37C140.899 36.8767 140.709 36.1933 140.709 35.32C140.709 34.4533 140.899 33.77 141.279 33.27C141.666 32.7633 142.199 32.51 142.879 32.51ZM143.099 33.39C142.679 33.39 142.356 33.5567 142.129 33.89C141.909 34.2233 141.799 34.7033 141.799 35.33C141.799 35.9567 141.909 36.4333 142.129 36.76C142.356 37.0867 142.686 37.25 143.119 37.25C143.613 37.25 143.973 37.1167 144.199 36.85C144.433 36.5767 144.549 36.1333 144.549 35.52V35.32C144.549 34.6333 144.433 34.14 144.199 33.84C143.966 33.54 143.599 33.39 143.099 33.39ZM148.281 32.43C148.281 32.6033 148.274 32.7733 148.261 32.94C148.247 33.1 148.234 33.2333 148.221 33.34H148.291C148.464 33.06 148.694 32.8533 148.981 32.72C149.274 32.5867 149.591 32.52 149.931 32.52C150.564 32.52 151.047 32.6767 151.381 32.99C151.721 33.3033 151.891 33.8033 151.891 34.49V38H150.841V34.64C150.841 33.8 150.471 33.38 149.731 33.38C149.177 33.38 148.797 33.5467 148.591 33.88C148.384 34.2067 148.281 34.6767 148.281 35.29V38H147.221V30.4H148.281V32.43ZM155.459 37.24C155.599 37.24 155.743 37.23 155.889 37.21C156.036 37.1833 156.163 37.15 156.269 37.11V37.91C156.149 37.9633 155.993 38.0067 155.799 38.04C155.613 38.08 155.423 38.1 155.229 38.1C154.936 38.1 154.666 38.05 154.419 37.95C154.173 37.85 153.976 37.6767 153.829 37.43C153.689 37.1833 153.619 36.84 153.619 36.4V33.42H152.869V32.94L153.659 32.54L154.029 31.4H154.679V32.61H156.219V33.42H154.679V36.38C154.679 36.6733 154.749 36.89 154.889 37.03C155.036 37.17 155.226 37.24 155.459 37.24ZM161.005 32.43C161.005 32.6033 160.999 32.7733 160.985 32.94C160.972 33.1 160.959 33.2333 160.945 33.34H161.015C161.189 33.06 161.419 32.8533 161.705 32.72C161.999 32.5867 162.315 32.52 162.655 32.52C163.289 32.52 163.772 32.6767 164.105 32.99C164.445 33.3033 164.615 33.8033 164.615 34.49V38H163.565V34.64C163.565 33.8 163.195 33.38 162.455 33.38C161.902 33.38 161.522 33.5467 161.315 33.88C161.109 34.2067 161.005 34.6767 161.005 35.29V38H159.945V30.4H161.005V32.43ZM168.364 32.51C169.071 32.51 169.627 32.73 170.034 33.17C170.441 33.6033 170.644 34.1967 170.644 34.95V35.53H167.024C167.037 36.0833 167.181 36.5067 167.454 36.8C167.734 37.0933 168.124 37.24 168.624 37.24C168.971 37.24 169.277 37.21 169.544 37.15C169.817 37.0833 170.097 36.9867 170.384 36.86V37.74C170.111 37.86 169.837 37.95 169.564 38.01C169.291 38.07 168.964 38.1 168.584 38.1C168.057 38.1 167.594 37.9967 167.194 37.79C166.801 37.5833 166.491 37.2767 166.264 36.87C166.044 36.4567 165.934 35.95 165.934 35.35C165.934 34.7433 166.034 34.23 166.234 33.81C166.441 33.39 166.724 33.07 167.084 32.85C167.451 32.6233 167.877 32.51 168.364 32.51ZM168.364 33.33C167.984 33.33 167.677 33.4533 167.444 33.7C167.217 33.9467 167.084 34.2967 167.044 34.75H169.584C169.577 34.33 169.474 33.99 169.274 33.73C169.081 33.4633 168.777 33.33 168.364 33.33ZM174.627 32.51C174.72 32.51 174.82 32.5167 174.927 32.53C175.04 32.5367 175.137 32.5467 175.217 32.56L175.107 33.55C174.933 33.5033 174.753 33.48 174.567 33.48C174.3 33.48 174.047 33.5467 173.807 33.68C173.573 33.8133 173.383 34.0067 173.237 34.26C173.097 34.5067 173.027 34.8067 173.027 35.16V38H171.967V32.61H172.807L172.947 33.57H172.987C173.16 33.2833 173.383 33.0367 173.657 32.83C173.93 32.6167 174.253 32.51 174.627 32.51ZM178.139 32.51C178.846 32.51 179.403 32.73 179.809 33.17C180.216 33.6033 180.419 34.1967 180.419 34.95V35.53H176.799C176.813 36.0833 176.956 36.5067 177.229 36.8C177.509 37.0933 177.899 37.24 178.399 37.24C178.746 37.24 179.053 37.21 179.319 37.15C179.593 37.0833 179.873 36.9867 180.159 36.86V37.74C179.886 37.86 179.613 37.95 179.339 38.01C179.066 38.07 178.739 38.1 178.359 38.1C177.833 38.1 177.369 37.9967 176.969 37.79C176.576 37.5833 176.266 37.2767 176.039 36.87C175.819 36.4567 175.709 35.95 175.709 35.35C175.709 34.7433 175.809 34.23 176.009 33.81C176.216 33.39 176.499 33.07 176.859 32.85C177.226 32.6233 177.653 32.51 178.139 32.51ZM178.139 33.33C177.759 33.33 177.453 33.4533 177.219 33.7C176.993 33.9467 176.859 34.2967 176.819 34.75H179.359C179.353 34.33 179.249 33.99 179.049 33.73C178.856 33.4633 178.553 33.33 178.139 33.33Z" fill="#949494"/>
<path d="M37.7267 12.75H21.3018C19.4779 12.75 18 14.2021 18 15.9928V37.9893C18 39.78 19.4779 41.2321 21.3018 41.2321H37.7254C39.5493 41.2321 41.0271 39.78 41.0271 37.9893V15.9928C41.0284 14.2021 39.5486 12.75 37.7267 12.75ZM21.0944 23.6815C21.0944 22.9214 21.7224 22.3059 22.495 22.3059H22.985C22.4627 21.739 22.1417 20.9893 22.1417 20.163C22.1417 18.397 23.6004 16.965 25.3986 16.965C27.198 16.965 28.6554 18.3964 28.6554 20.1637C28.6554 20.9887 28.3345 21.739 27.8108 22.3059H28.279C29.053 22.3059 29.6796 22.9214 29.6796 23.6815V26.002C29.6796 26.7297 29.1018 27.3186 28.3754 27.3679H22.3986C21.6722 27.3186 21.0944 26.7297 21.0944 26.002V23.6815V23.6815ZM36.6127 37.0165H22.4151C21.6861 37.0165 21.0944 36.4354 21.0944 35.7194C21.0944 35.0034 21.6861 34.4223 22.4151 34.4223H36.6127C37.3417 34.4223 37.9334 35.0034 37.9334 35.7194C37.9334 36.4354 37.3417 37.0165 36.6127 37.0165ZM36.6127 32.1523H22.4151C21.6861 32.1523 21.0944 31.5712 21.0944 30.8552C21.0944 30.1392 21.6861 29.5581 22.4151 29.5581H36.6127C37.3417 29.5581 37.9334 30.1392 37.9334 30.8552C37.9334 31.5712 37.3417 32.1523 36.6127 32.1523ZM36.6127 27.2881H32.3204C31.5914 27.2881 30.9997 26.707 30.9997 25.991C30.9997 25.275 31.5914 24.6939 32.3204 24.6939H36.6127C37.3417 24.6939 37.9334 25.275 37.9334 25.991C37.9334 26.707 37.3417 27.2881 36.6127 27.2881Z" fill="#949494"/>
</svg>
