<svg width="48" height="32" viewBox="0 0 48 32" fill="none" xmlns="http://www.w3.org/2000/svg">
<path d="M31.169 0H16.8307C11.9614 0 8 3.96162 8 8.83084V23.1692C8 28.0386 11.9614 32 16.8307 32H31.169C36.0386 32 40 28.0384 40 23.1692V8.83084C40.0002 3.96162 36.0386 0 31.169 0ZM37.161 23.1692C37.161 26.473 34.473 29.1608 31.1692 29.1608H16.8307C13.527 29.161 10.8392 26.473 10.8392 23.1692V8.83084C10.8392 5.52716 13.527 2.8392 16.8307 2.8392H31.169C34.4728 2.8392 37.1608 5.52716 37.1608 8.83084V23.1692H37.161Z" fill="#949494"/>
<path d="M24 7.75476C19.4533 7.75476 15.7544 11.4537 15.7544 16.0004C15.7544 20.5469 19.4533 24.2456 24 24.2456C28.5467 24.2456 32.2456 20.5469 32.2456 16.0004C32.2456 11.4537 28.5467 7.75476 24 7.75476ZM24 21.4062C21.019 21.4062 18.5936 18.9812 18.5936 16.0002C18.5936 13.019 21.0189 10.5938 24 10.5938C26.9812 10.5938 29.4064 13.019 29.4064 16.0002C29.4064 18.9812 26.981 21.4062 24 21.4062Z" fill="#949494"/>
<path d="M32.5916 5.34729C32.0446 5.34729 31.5072 5.56875 31.1209 5.95677C30.7327 6.3429 30.5095 6.88046 30.5095 7.42937C30.5095 7.97657 30.7329 8.51394 31.1209 8.90196C31.507 9.28809 32.0446 9.51144 32.5916 9.51144C33.1405 9.51144 33.6762 9.28809 34.0642 8.90196C34.4522 8.51394 34.6737 7.97639 34.6737 7.42937C34.6737 6.88046 34.4522 6.3429 34.0642 5.95677C33.6781 5.56875 33.1405 5.34729 32.5916 5.34729Z" fill="#949494"/>
</svg>
