<svg width="48" height="32" viewBox="0 0 48 32" fill="none" xmlns="http://www.w3.org/2000/svg">
<path d="M37.1053 0H10.8947C9.296 0 8 1.296 8 2.89466V29.1053C8 30.704 9.296 32 10.8947 32H37.1053C38.704 32 40 30.704 40 29.1053V2.89466C40 1.296 38.704 0 37.1053 0ZM17.9022 27.6309C17.9022 28.0962 17.525 28.4733 17.0598 28.4733H13.4739C13.0087 28.4733 12.6315 28.0962 12.6315 27.6309V12.5992C12.6315 12.1339 13.0087 11.7568 13.4739 11.7568H17.0598C17.525 11.7568 17.9022 12.1339 17.9022 12.5992V27.6309ZM15.2668 10.3399C13.3855 10.3399 11.8603 8.81466 11.8603 6.93328C11.8603 5.0519 13.3855 3.5267 15.2668 3.5267C17.1482 3.5267 18.6734 5.0519 18.6734 6.93328C18.6734 8.81466 17.1483 10.3399 15.2668 10.3399ZM36.6417 27.6988C36.6417 28.1265 36.2949 28.4733 35.8671 28.4733H32.0193C31.5915 28.4733 31.2447 28.1265 31.2447 27.6988V20.648C31.2447 19.5962 31.5533 16.039 28.496 16.039C26.1246 16.039 25.6436 18.4738 25.547 19.5665V27.6988C25.547 28.1265 25.2003 28.4733 24.7724 28.4733H21.0509C20.6232 28.4733 20.2764 28.1265 20.2764 27.6988V12.5314C20.2764 12.1036 20.6232 11.7568 21.0509 11.7568H24.7724C25.2002 11.7568 25.547 12.1036 25.547 12.5314V13.8428C26.4263 12.5231 27.7331 11.5046 30.5155 11.5046C36.6769 11.5046 36.6417 17.2609 36.6417 20.4237V27.6988Z" fill="#949494"/>
</svg>
