<svg width="48" height="32" viewBox="0 0 48 32" fill="none" xmlns="http://www.w3.org/2000/svg">
<path d="M31.6785 18.3876C31.6161 18.3577 29.2832 17.2089 28.8687 17.0597C28.6994 16.999 28.5181 16.9396 28.3253 16.9396C28.0103 16.9396 27.7457 17.0966 27.5395 17.405C27.3065 17.7514 26.6011 18.576 26.3831 18.8223C26.3546 18.8549 26.3158 18.8937 26.2925 18.8937C26.2716 18.8937 25.9106 18.745 25.8013 18.6976C23.2987 17.6105 21.3992 14.9964 21.1387 14.5555C21.1015 14.4922 21.1 14.4634 21.0997 14.4634C21.1088 14.4298 21.193 14.3455 21.2364 14.3019C21.3634 14.1762 21.5011 14.0105 21.6343 13.8502C21.6974 13.7742 21.7605 13.6982 21.8226 13.6265C22.0158 13.4017 22.1018 13.2271 22.2016 13.0249L22.2538 12.9199C22.4974 12.4361 22.2894 12.0277 22.2221 11.8959C22.167 11.7856 21.1819 9.40824 21.0772 9.15847C20.8254 8.55577 20.4926 8.27515 20.0301 8.27515C19.9872 8.27515 20.0301 8.27515 19.8502 8.28273C19.6311 8.29198 18.4378 8.44907 17.9102 8.78164C17.3508 9.13437 16.4043 10.2587 16.4043 12.2361C16.4043 14.0157 17.5336 15.696 18.0185 16.3351C18.0306 16.3512 18.0527 16.3839 18.0848 16.4309C19.9417 19.1428 22.2566 21.1525 24.6033 22.09C26.8626 22.9924 27.9324 23.0967 28.5406 23.0967C28.5407 23.0967 28.5407 23.0967 28.5407 23.0967C28.7963 23.0967 29.0008 23.0767 29.1813 23.0589L29.2958 23.048C30.0763 22.9788 31.7914 22.0901 32.1815 21.0059C32.4888 20.152 32.5699 19.219 32.3654 18.8804C32.2254 18.6502 31.984 18.5343 31.6785 18.3876Z" fill="#949494"/>
<path d="M24.2843 0C15.6177 0 8.56687 6.99782 8.56687 15.5993C8.56687 18.3813 9.31139 21.1045 10.7218 23.4879L8.02225 31.451C7.97196 31.5995 8.00936 31.7636 8.11918 31.8754C8.19845 31.9564 8.30599 32 8.4158 32C8.45788 32 8.50027 31.9937 8.54162 31.9805L16.845 29.3419C19.1172 30.5559 21.6853 31.1968 24.2844 31.1968C32.9501 31.1969 40.0002 24.1998 40.0002 15.5993C40.0002 6.99782 32.9501 0 24.2843 0ZM24.2843 27.9474C21.8387 27.9474 19.4699 27.2412 17.4338 25.9051C17.3653 25.8602 17.2858 25.8371 17.2058 25.8371C17.1635 25.8371 17.1212 25.8435 17.0799 25.8566L12.9204 27.1788L14.2632 23.2174C14.3066 23.0891 14.2849 22.9477 14.2049 22.8384C12.6544 20.7198 11.8347 18.2166 11.8347 15.5993C11.8347 8.78961 17.4195 3.24945 24.2842 3.24945C31.148 3.24945 36.7322 8.78961 36.7322 15.5993C36.7323 22.4081 31.1482 27.9474 24.2843 27.9474Z" fill="#949494"/>
</svg>
